<?xml version="1.0" encoding="iso-8859-1"?>
<!-- Generator: Adobe Illustrator 19.0.0, SVG Export Plug-In . SVG Version: 6.00 Build 0)  -->
<svg version="1.1" id="Capa_1" xmlns="http://www.w3.org/2000/svg" xmlns:xlink="http://www.w3.org/1999/xlink" x="0px" y="0px"
	 viewBox="0 0 480 480" style="enable-background:new 0 0 480 480;" xml:space="preserve">
<path style="fill:#00D3E1;" d="M297.112,396L240,296.064L182.888,396H297.112z M244,352v16h-8v-16H244z"/>
<g>
	<path style="fill:#FFE4B6;" d="M284.504,355.776c12.728-1.288,23.672-8.664,30.032-20.232c6.816-12.376,7.136-27.248,0.864-39.784
		l-1.168-2.336c-5.472,20.456-23.192,35.816-44.752,38.104l13.88,24.296C283.744,355.8,284.136,355.816,284.504,355.776z"/>
	<path style="fill:#FFE4B6;" d="M221.312,172c7.856,0,11.664-3.264,16.072-7.04c4.896-4.2,10.464-8.96,21.272-8.96
		s16.376,4.76,21.272,8.96c3.696,3.168,7.112,5.848,12.712,6.672c5.376-26.504,2.96-54.344-7.304-79.632h-90.672
		c-8.272,20.376-11.36,42.408-9.472,64.064c10,0.352,15.36,4.856,20.064,8.896C209.664,168.736,213.464,172,221.312,172z"/>
	<path style="fill:#FFE4B6;" d="M165.76,293.432l-1.168,2.336c-6.264,12.536-5.944,27.408,0.864,39.784
		c6.36,11.568,17.304,18.944,30.032,20.232c0.376,0.04,0.76,0.032,1.136,0.056l13.88-24.296
		C188.952,329.24,171.232,313.888,165.76,293.432z"/>
</g>
<g>
	<polygon style="fill:#FF8242;" points="285.12,52 298.456,12 181.544,12 194.88,52 	"/>
	<path style="fill:#FF8242;" d="M192,204h-21.864c-30.12,0-58.672,14.544-76.384,38.896c-20.424,28.08-23.808,64.984-8.832,96.312
		L146.52,468h186.952l61.6-128.792c14.976-31.328,11.592-68.232-8.832-96.312C368.528,218.544,339.976,204,309.856,204H288
		c-1.344,0-2.6-0.672-3.336-1.8c-0.744-1.128-0.864-2.544-0.344-3.776c2.64-6.152,4.64-12.496,6.336-18.904
		c-7.416-1.272-11.92-5.04-15.936-8.48c-4.408-3.776-8.208-7.04-16.072-7.04s-11.664,3.264-16.072,7.04
		c-4.896,4.2-10.464,8.96-21.272,8.96s-16.36-4.76-21.256-8.968c-3.944-3.376-7.552-6.208-13.856-6.792
		c1.72,11.68,4.776,23.2,9.48,34.184c0.52,1.232,0.4,2.656-0.344,3.776C194.6,203.328,193.344,204,192,204z M355.696,244.96
		c4.176,3.576,7.928,7.632,11.144,12.048c13.504,18.568,17.128,42.6,9.68,64.288l-7.56-2.592
		c6.592-19.224,3.392-40.528-8.584-56.992c-2.84-3.92-6.168-7.504-9.872-10.672L355.696,244.96z M320.616,228.832
		c7.952,1.232,15.584,3.808,22.68,7.64l-3.8,7.04c-6.288-3.4-13.064-5.672-20.12-6.768L320.616,228.832z M214.848,323.944
		l21.672-37.928c1.44-2.496,5.512-2.496,6.952,0l21.672,37.928C288.872,323.328,308,303.872,308,280c0-1.856,1.272-3.472,3.08-3.896
		c1.84-0.424,3.672,0.44,4.496,2.104l6.984,13.976c7.448,14.888,7.064,32.536-1.016,47.216c-7.248,13.184-19.52,21.76-33.88,23.952
		l19.808,34.664c0.704,1.24,0.696,2.76-0.016,3.992C306.744,403.24,305.432,404,304,404H176c-1.432,0-2.744-0.76-3.464-1.992
		c-0.712-1.232-0.72-2.752-0.016-3.992l19.808-34.664c-14.352-2.192-26.624-10.768-33.88-23.952
		c-8.08-14.68-8.464-32.328-1.016-47.216l6.984-13.976c0.832-1.664,2.648-2.528,4.496-2.104c1.816,0.424,3.088,2.04,3.088,3.896
		C172,303.872,191.128,323.328,214.848,323.944z"/>
</g>
<path style="fill:#FFE4B6;" d="M288,84h8c6.616,0,12-5.384,12-12s-5.384-12-12-12h-8h-96h-8c-6.616,0-12,5.384-12,12s5.384,12,12,12
	h8H288z"/>
<g>
	<path style="fill:#120536;" d="M84.048,235.84c-23.024,31.648-26.832,73.24-9.952,108.544l62.688,131.064
		C138.112,478.232,140.92,480,144,480h192c3.08,0,5.888-1.768,7.216-4.544l62.688-131.072c16.88-35.304,13.072-76.896-9.952-108.544
		l0,0c-19.96-27.448-52.136-43.84-86.088-43.84h-10.256c10.48-31.16,10.352-65.208-0.208-96.344C311.016,93.984,320,84.072,320,72
		c0-12.208-9.192-22.2-21.008-23.696l12.592-37.768c0.824-2.44,0.408-5.12-1.096-7.208C308.984,1.232,306.568,0,304,0H176
		c-2.568,0-4.984,1.232-6.496,3.328c-1.504,2.088-1.912,4.768-1.096,7.208L181,48.304C169.192,49.8,160,59.792,160,72
		c0,12.072,8.984,21.984,20.6,23.656c-10.56,31.136-10.688,65.184-0.208,96.344h-10.256C136.184,192,104.008,208.392,84.048,235.84z
		 M289.376,166.664c-2.408-1.064-4.424-2.664-6.848-4.744c-5.152-4.416-11.576-9.92-23.872-9.92s-18.72,5.504-23.872,9.928
		c-4.28,3.656-7.096,6.072-13.472,6.072c-6.368,0-9.184-2.416-13.448-6.072c-4.408-3.776-9.768-8.32-18.896-9.568
		c-1.176-19.064,1.528-38.328,8.424-56.36h85.216C291.24,118.56,293.392,143.056,289.376,166.664z M292.896,16l-10.664,32h-84.464
		l-10.664-32H292.896z M176,72c0-4.408,3.584-8,8-8h8h96h8c4.416,0,8,3.592,8,8s-3.584,8-8,8h-8h-96h-8
		C179.584,80,176,76.408,176,72z M192,208c2.688,0,5.192-1.352,6.68-3.6c1.48-2.24,1.736-5.08,0.672-7.552
		c-3.784-8.824-6.472-18.008-8.264-27.344c2.2,1.064,4.096,2.624,6.36,4.568c5.152,4.424,11.576,9.928,23.864,9.928
		c12.296,0,18.72-5.504,23.872-9.928c4.28-3.656,7.096-6.072,13.472-6.072s9.192,2.416,13.472,6.072
		c3.48,2.984,7.584,6.424,13.64,8.368c-1.448,4.872-3.096,9.696-5.112,14.408c-1.064,2.472-0.808,5.312,0.672,7.552
		c1.48,2.248,3.984,3.6,6.672,3.6h21.864c28.84,0,56.184,13.928,73.152,37.248l0,0c19.56,26.888,22.8,62.224,8.456,92.224
		L330.96,464H149.04L88.536,337.488c-14.344-30-11.112-65.344,8.456-92.232C113.944,221.928,141.288,208,170.136,208H192z"/>
	<path style="fill:#120536;" d="M345.2,232.952c-7.504-4.048-15.56-6.768-23.976-8.072l-2.456,15.816
		c6.6,1.024,12.936,3.16,18.824,6.336L345.2,232.952z"/>
	<path style="fill:#120536;" d="M357.136,264.072c11.2,15.408,14.208,35.344,8.032,53.336l15.144,5.192
		c7.864-22.92,4.04-48.32-10.232-67.944c-3.392-4.672-7.36-8.968-11.784-12.744l-10.392,12.168
		C351.36,257.04,354.472,260.4,357.136,264.072z"/>
	<rect x="232" y="352" style="fill:#120536;" width="16" height="16"/>
	<path style="fill:#120536;" d="M160.84,276.424l-6.984,13.976c-8.032,16.064-7.624,35.104,1.088,50.936
		c6.904,12.552,18.032,21.24,31.192,24.8l-17.088,29.904c-1.416,2.48-1.408,5.52,0.024,7.984c1.44,2.456,4.08,3.976,6.928,3.976h128
		c2.848,0,5.488-1.52,6.92-3.984c1.432-2.464,1.44-5.504,0.024-7.984l-17.088-29.904c13.16-3.56,24.288-12.248,31.192-24.8
		c8.712-15.832,9.12-34.872,1.088-50.936l-6.984-13.976c-1.656-3.32-5.408-5.064-8.992-4.208c-3.608,0.856-6.16,4.08-6.16,7.792
		c0,20.92-16.208,37.952-36.696,39.664l-20.36-35.632c-2.84-4.984-11.048-4.984-13.888,0l-20.36,35.632
		C192.208,317.952,176,300.92,176,280c0-3.712-2.552-6.936-6.168-7.784C166.24,271.344,162.496,273.104,160.84,276.424z
		 M314.448,304.312c2.736,9.704,1.576,20.24-3.408,29.312c-5.48,9.952-14.728,16.4-25.504,17.944L275.84,334.6
		C292.84,330.904,307.04,319.6,314.448,304.312z M240,304.128L290.208,392H189.792L240,304.128z M204.16,334.592l-9.696,16.968
		c-10.776-1.544-20.024-7.992-25.504-17.944c-4.984-9.064-6.144-19.608-3.408-29.312C172.96,319.6,187.16,330.904,204.16,334.592z"
		/>
</g>
<g>
</g>
<g>
</g>
<g>
</g>
<g>
</g>
<g>
</g>
<g>
</g>
<g>
</g>
<g>
</g>
<g>
</g>
<g>
</g>
<g>
</g>
<g>
</g>
<g>
</g>
<g>
</g>
<g>
</g>
</svg>
