<svg height="512pt" viewBox="-53 0 512 512" width="512pt" xmlns="http://www.w3.org/2000/svg"><path d="m273.65625 61.792969c-.644531 23.09375-14.328125 43.828125-35.3125 53.496093v34.78125c0 4.875-3.949219 8.828126-8.828125 8.828126h-52.964844c-4.875 0-8.828125-3.953126-8.828125-8.828126v-34.78125c-20.980468-9.667968-34.667968-30.402343-35.308594-53.496093 0-34.164063 31.601563-61.792969 70.621094-61.792969 39.015625 0 70.621094 27.628906 70.621094 61.792969zm0 0" fill="#894b9d"/><path d="m203.035156 167.722656c-4.875 0-8.828125-3.949218-8.828125-8.824218v-35.3125c0-4.875 3.953125-8.828126 8.828125-8.828126s8.828125 3.953126 8.828125 8.828126v35.3125c0 4.875-3.953125 8.824218-8.828125 8.824218zm0 0" fill="#3d324c"/><path d="m185.378906 79.449219c-2.339844 0-4.585937-.933594-6.242187-2.585938l-17.652344-17.65625c-3.347656-3.464843-3.300781-8.96875.105469-12.375s8.910156-3.453125 12.375-.109375l17.65625 17.65625c2.523437 2.523438 3.277344 6.320313 1.910156 9.621094-1.363281 3.296875-4.582031 5.449219-8.152344 5.449219zm0 0" fill="#3d324c"/><path d="m220.691406 79.449219c-3.570312 0-6.789062-2.152344-8.15625-5.449219-1.367187-3.300781-.609375-7.097656 1.914063-9.621094l17.65625-17.65625c2.214843-2.292968 5.496093-3.214844 8.582031-2.40625s5.496094 3.21875 6.304688 6.304688c.808593 3.085937-.113282 6.371094-2.40625 8.585937l-17.65625 17.65625c-1.652344 1.652344-3.898438 2.585938-6.238282 2.585938zm0 0" fill="#3d324c"/><path d="m256 191.824219v39.371093c86.421875 16.332032 150.070312 71.945313 150.070312 137.886719 0 78.917969-90.925781 142.917969-203.035156 142.917969s-203.035156-64-203.035156-142.917969c0-65.941406 63.648438-121.554687 150.070312-137.886719v-39.371093zm0 0" fill="#2fa8cc"/><path d="m158.898438 158.898438h88.273437c9.75 0 17.65625 7.902343 17.65625 17.652343s-7.90625 17.65625-17.65625 17.65625h-88.273437c-9.753907 0-17.65625-7.90625-17.65625-17.65625s7.902343-17.652343 17.65625-17.652343zm0 0" fill="#285680"/><path d="m303.667969 283.71875c-23.164063 5.160156-45.128907 14.691406-64.722657 28.082031-19.65625 13.066407-41.890624 21.753907-65.199218 25.476563-42.972656 5.867187-86.59375 5.132812-129.34375-2.183594-5.839844 10.382812-8.96875 22.074219-9.09375 33.988281 0 58.351563 76.800781 107.609375 167.726562 107.609375 90.921875 0 167.722656-49.257812 167.722656-107.609375 0-33.367187-26.304687-65.148437-67.089843-85.363281zm0 0" fill="#3d324c"/><path d="m308.964844 379.585938c0 14.625-11.855469 26.484374-26.480469 26.484374-14.628906 0-26.484375-11.859374-26.484375-26.484374s11.855469-26.484376 26.484375-26.484376c14.625 0 26.480469 11.859376 26.480469 26.484376zm0 0" fill="#7d6599"/><path d="m141.242188 397.242188c0 9.75-7.90625 17.65625-17.65625 17.65625s-17.65625-7.90625-17.65625-17.65625 7.90625-17.65625 17.65625-17.65625 17.65625 7.90625 17.65625 17.65625zm0 0" fill="#7d6599"/><path d="m220.691406 264.828125c0 9.75-7.90625 17.65625-17.65625 17.65625s-17.65625-7.90625-17.65625-17.65625 7.90625-17.65625 17.65625-17.65625 17.65625 7.90625 17.65625 17.65625zm0 0" fill="#3d324c"/><g fill="#7d6599"><path d="m194.207031 414.898438c0 4.875-3.953125 8.824218-8.828125 8.824218s-8.828125-3.949218-8.828125-8.824218c0-4.878907 3.953125-8.828126 8.828125-8.828126s8.828125 3.949219 8.828125 8.828126zm0 0"/><path d="m229.515625 370.757812c0 4.875-3.949219 8.828126-8.824219 8.828126-4.878906 0-8.828125-3.953126-8.828125-8.828126s3.949219-8.828124 8.828125-8.828124c4.875 0 8.824219 3.953124 8.824219 8.828124zm0 0"/><path d="m256 432.550781c0 4.875-3.953125 8.828125-8.828125 8.828125s-8.828125-3.953125-8.828125-8.828125 3.953125-8.828125 8.828125-8.828125 8.828125 3.953125 8.828125 8.828125zm0 0"/><path d="m317.792969 326.621094c0 4.875-3.953125 8.828125-8.828125 8.828125s-8.828125-3.953125-8.828125-8.828125 3.953125-8.828125 8.828125-8.828125 8.828125 3.953125 8.828125 8.828125zm0 0"/></g><path d="m123.585938 308.964844c0 4.875-3.953126 8.828125-8.828126 8.828125s-8.828124-3.953125-8.828124-8.828125 3.953124-8.828125 8.828124-8.828125 8.828126 3.953125 8.828126 8.828125zm0 0" fill="#3d324c"/></svg>