<svg height="416pt" viewBox="-54 0 416 416.42671" width="416pt" xmlns="http://www.w3.org/2000/svg"><path d="m174.148438 116.054688h-40.671876c-13.277343 0-24.035156-10.761719-24.035156-24.039063v-85.1875h88.746094v85.1875c0 13.277344-10.761719 24.039063-24.039062 24.039063" fill="#f4a14e"/><path d="m174.148438 116.054688v-6.828126h-40.671876c-9.503906-.015624-17.191406-7.707031-17.210937-17.210937v-78.363281h75.09375v78.363281c-.015625 9.503906-7.703125 17.191406-17.210937 17.210937v13.652344c17.050781-.003906 30.859374-13.8125 30.863281-30.859375v-85.191406c0-1.800781-.730469-3.554687-2-4.828125-1.269531-1.269531-3.027344-2-4.824219-2h-88.746094c-1.800781 0-3.558594.726562-4.828125 2-1.269531 1.269531-2 3.027344-2 4.828125v85.1875c.003907 17.050781 13.8125 30.859375 30.863281 30.863281h40.671876z" fill="#54596e"/><path d="m225.492188 136.535156v-6.828125h-136.53125v-27.308593h129.707031v34.136718h6.824219v-6.828125 6.828125h6.828124v-40.960937c0-1.800781-.730468-3.558594-2-4.828125-1.273437-1.273438-3.03125-2-4.828124-2h-143.359376c-1.796874 0-3.554687.730468-4.824218 2-1.273438 1.269531-2 3.03125-2 4.828125v40.960937c0 1.796875.726562 3.554688 2 4.828125 1.269531 1.269531 3.027344 1.996094 4.824218 1.996094h143.359376c1.796874 0 3.554687-.726563 4.828124-1.996094 1.273438-1.273437 2-3.03125 2-4.828125z" fill="#54596e"/><path d="m228.328125 136.535156h-149.027344c-43.203125 25.546875-72.261719 72.46875-72.261719 126.292969 0 53.820313 29.058594 100.746094 72.261719 126.292969h149.027344c43.199219-25.546875 72.257813-72.472656 72.257813-126.292969 0-53.824219-29.058594-100.746094-72.257813-126.292969zm0 0" fill="#fff"/><path d="m228.328125 136.535156v-6.828125h-149.027344c-1.230469 0-2.417969.324219-3.476562.949219-45.183594 26.707031-75.609375 75.84375-75.609375 132.171875 0 56.324219 30.425781 105.460937 75.609375 132.167969 1.058593.625 2.25.949218 3.476562.949218h149.027344c1.226563 0 2.414063-.324218 3.472656-.949218 45.183594-26.707032 75.609375-75.84375 75.613281-132.167969-.003906-56.328125-30.425781-105.464844-75.613281-132.171875-1.058593-.625-2.246093-.949219-3.472656-.949219v6.828125l-3.476563 5.875c41.214844 24.386719 68.910157 69.097656 68.910157 120.417969 0 51.316406-27.695313 96.027344-68.910157 120.414063l3.476563 5.878906v-6.828125h-149.027344v6.828125l3.472657-5.878906c-41.214844-24.386719-68.910157-69.097657-68.90625-120.414063-.003907-51.320313 27.691406-96.03125 68.90625-120.417969l-3.472657-5.875v6.824219h149.027344v-6.824219l-3.476563 5.875z" fill="#54596e"/><path d="m222 409.601562h-136.375c-5.074219 0-8.660156-4.976562-7.054688-9.792968l3.5625-10.6875h143.359376l3.566406 10.6875c1.605468 4.816406-1.980469 9.792968-7.058594 9.792968zm0 0" fill="#55a6ff"/><path d="m222 409.601562v-6.828124h-136.375l-.429688-.175782-.1875-.425781.035157-.199219 2.007812-6.027344h133.519531l2.007813 6.019532.039063.207031-.191407.425781-.425781.175782v13.652343c4.007812.011719 7.679688-1.6875 10.195312-4.289062 2.535157-2.59375 4.070313-6.132813 4.074219-9.964844 0-1.5-.238281-3.039063-.734375-4.523437l-3.566406-10.6875c-.933594-2.796876-3.527344-4.667969-6.476562-4.667969h-143.359376c-2.949218 0-5.542968 1.871093-6.476562 4.667969l-3.5625 10.6875c-.5 1.484374-.738281 3.023437-.738281 4.523437.003906 3.832031 1.539062 7.371094 4.074219 9.96875 2.515624 2.601563 6.1875 4.296875 10.195312 4.285156h136.375zm0 0" fill="#54596e"/><path d="m232.320312 68.265625v-6.824219h-157.011718c-11.316406.003906-20.476563 9.164063-20.480469 20.480469.003906 11.3125 9.164063 20.472656 20.480469 20.476563h157.011718c11.316407 0 20.472657-9.164063 20.480469-20.476563-.007812-11.316406-9.167969-20.476563-20.480469-20.480469v13.652344c3.765626.007812 6.820313 3.058594 6.828126 6.828125-.007813 3.765625-3.0625 6.816406-6.828126 6.824219h-157.011718c-3.769532-.007813-6.820313-3.058594-6.828125-6.824219.007812-3.769531 3.058593-6.820313 6.828125-6.828125h157.011718z" fill="#54596e"/><path d="m184.535156 279.894531s-122.882812-95.574219-177.496094-27.308593l13.652344 40.960937 81.921875 20.480469 47.785157-6.828125zm0 0" fill="#a1b7ff"/><path d="m184.535156 279.894531 4.191406-5.390625c-.191406-.144531-17.109374-13.300781-41.402343-26.550781-24.332031-13.199219-55.929688-26.699219-86.46875-26.777344-10.90625 0-21.714844 1.777344-31.832031 6.105469-10.117188 4.316406-19.46875 11.21875-27.3125 21.042969-1.441407 1.800781-1.875 4.234375-1.144532 6.421875l13.652344 40.960937c.734375 2.207031 2.5625 3.898438 4.820312 4.464844l81.921876 20.476563c.832031.210937 1.765624.257812 2.621093.136718l47.785157-6.828125c1.21875-.171875 2.339843-.660156 3.300781-1.425781l34.132812-27.304688c1.636719-1.3125 2.578125-3.28125 2.5625-5.378906s-.980469-4.054687-2.636719-5.34375l-4.191406 5.390625-4.265625-5.332031-32.679687 26.140625-44.617188 6.375-76.988281-19.246094-12.46875-37.40625-6.476563 2.160157 5.332032 4.265624c6.527344-8.144531 13.910156-13.535156 22.023437-17.015624 8.113281-3.472657 17.023438-5.003907 26.460938-5.003907 26.421875-.078125 56.664062 12.367188 79.933593 25.113281 11.652344 6.347657 21.589844 12.71875 28.589844 17.484376 3.5 2.382812 6.265625 4.363281 8.140625 5.742187.941407.6875 1.65625 1.226563 2.132813 1.585937l.691406.523438 4.191406-5.386719-4.265625-5.332031zm0 0" fill="#54596e"/><path d="m198.1875 238.933594c-64.027344 38.417968-55.996094 58.816406-127.964844 55.570312-13.148437-.59375-26.242187-3.613281-37.730468-10.035156-10.761719-6.011719-21.140626-15.46875-25.121094-31.566406-.21875 3.28125-.332032 6.585937-.332032 9.925781 0 53.820313 29.058594 100.746094 72.261719 126.292969h149.027344c43.199219-25.546875 72.257813-72.472656 72.257813-126.292969 0-15.5-2.480469-30.398437-6.941407-44.410156-20.25-4.050781-54.078125-4.3125-95.457031 20.515625zm0 0" fill="#55a6ff"/><path d="m198.1875 238.933594-3.511719-5.855469c-30.296875 18.179687-45.105469 32.652344-58.238281 41.582031-6.582031 4.480469-12.636719 7.664063-20.5625 9.898438-7.921875 2.222656-17.855469 3.453125-31.804688 3.453125-4.148437 0-8.644531-.105469-13.539062-.328125-12.320312-.550782-24.367188-3.386719-34.707031-9.171875-4.871094-2.722657-9.484375-6.132813-13.269531-10.511719-3.789063-4.390625-6.8125-9.730469-8.554688-16.734375-.804688-3.257813-3.878906-5.457031-7.222656-5.164063-3.347656.296876-5.992188 2.992188-6.214844 6.34375-.230469 3.429688-.347656 6.890626-.347656 10.382813 0 56.324219 30.425781 105.460937 75.609375 132.167969 1.058593.625 2.246093.949218 3.476562.949218h149.027344c1.226563 0 2.414063-.324218 3.472656-.949218 45.183594-26.707032 75.609375-75.84375 75.613281-132.167969 0-16.230469-2.601562-31.835937-7.265624-46.480469-.753907-2.367187-2.730469-4.136718-5.164063-4.621094-6.339844-1.269531-13.894531-2.183593-22.496094-2.183593-20.742187-.015625-47.5625 5.367187-77.8125 23.535156l7.023438 11.710937c28.25-16.933593 52.378906-21.578124 70.789062-21.59375 7.632813 0 14.28125.8125 19.8125 1.917969l1.339844-6.691406-6.503906 2.070313c4.261719 13.375 6.621093 27.5625 6.625 42.335937 0 51.316406-27.695313 96.027344-68.910157 120.414063l3.476563 5.878906v-6.828125h-149.027344v6.828125l3.472657-5.878906c-41.214844-24.386719-68.910157-69.097657-68.90625-120.414063 0-3.183594.105468-6.339844.316406-9.46875l-6.8125-.457031-6.625 1.636718c2.238281 9.09375 6.394531 16.53125 11.480468 22.394532 5.085938 5.875 11.046876 10.203125 16.9375 13.496094 12.632813 7.050781 26.777344 10.257812 40.75 10.890624 5.070313.230469 9.769532.34375 14.15625.34375 14.726563 0 25.949219-1.289062 35.488282-3.960937 7.144531-1.996094 13.289062-4.792969 18.988281-8.1875 17.136719-10.316406 30.1875-24.980469 63.152344-44.730469zm0 0" fill="#54596e"/><g fill="#a1b7ff"><path d="m259.625 279.894531c0 11.308594-9.167969 20.480469-20.476562 20.480469-11.3125 0-20.480469-9.171875-20.480469-20.480469 0-11.3125 9.167969-20.480469 20.480469-20.480469 11.308593 0 20.476562 9.167969 20.476562 20.480469zm0 0"/><path d="m205.011719 334.507812c0 7.539063-6.109375 13.652344-13.652344 13.652344-7.539063 0-13.652344-6.113281-13.652344-13.652344 0-7.542968 6.113281-13.65625 13.652344-13.65625 7.542969 0 13.652344 6.113282 13.652344 13.65625zm0 0"/><path d="m184.535156 286.71875c0 3.773438-3.058594 6.828125-6.828125 6.828125s-6.828125-3.054687-6.828125-6.828125c0-3.769531 3.058594-6.824219 6.828125-6.824219s6.828125 3.054688 6.828125 6.824219zm0 0"/></g><path d="m232.320312 180.90625c0 5.65625-4.585937 10.242188-10.242187 10.242188-5.652344 0-10.238281-4.585938-10.238281-10.242188s4.585937-10.238281 10.238281-10.238281c5.65625 0 10.242187 4.582031 10.242187 10.238281zm0 0" fill="#54596e"/><path d="m95.785156 180.90625c0 5.65625-4.582031 10.242188-10.238281 10.242188s-10.238281-4.585938-10.238281-10.242188 4.582031-10.238281 10.238281-10.238281 10.238281 4.582031 10.238281 10.238281zm0 0" fill="#54596e"/><path d="m88.960938 334.507812c0 7.539063-6.113282 13.652344-13.652344 13.652344-7.542969 0-13.65625-6.113281-13.65625-13.652344 0-7.542968 6.113281-13.65625 13.65625-13.65625 7.539062 0 13.652344 6.113282 13.652344 13.65625zm0 0" fill="#a1b7ff"/><path d="m205.011719 75.09375v13.652344h6.828125c1.796875 0 3.554687-.726563 4.828125-1.996094 1.269531-1.273438 2-3.03125 2-4.828125 0-1.800781-.730469-3.558594-2-4.828125-1.269531-1.273438-3.03125-2-4.828125-2 0 0-2.464844 0-6.828125 0m-111.214844 0c-3.109375 0-4.828125 0-4.835937 0-1.800782 0-3.558594.726562-4.828126 2-1.273437 1.269531-2 3.027344-2 4.828125 0 1.796875.730469 3.554687 2 4.828125 1.273438 1.269531 3.03125 1.996094 4.828126 1.996094h13.652343v-13.652344c-3.585937 0-6.566406 0-8.816406 0" fill="#fff"/><path d="m126.484375 75.09375c-3.59375 0-7.011719 0-10.21875 0v13.652344h34.132813 40.960937v-13.652344c-10.867187 0-25.222656 0-40.960937 0-8.480469 0-16.5625 0-23.914063 0" fill="#fad0a7"/><path d="m116.265625 75.09375c-3.351563 0-6.46875 0-9.308594 0-1.53125 0-2.980469 0-4.34375 0v13.652344h4.34375 9.308594zm77.578125 0c-.804688 0-1.632812 0-2.484375 0v13.652344h13.652344v-13.652344c-2.921875 0-6.703125 0-11.167969 0" fill="#aaacb7"/><path d="m218.667969 102.398438h-15.445313c-4.265625 11.941406-15.667968 20.476562-29.074218 20.480468h-40.671876c-13.40625-.003906-24.808593-8.539062-29.074218-20.480468h-15.441406v27.308593h129.707031z" fill="#fff"/><path d="m187.863281 102.398438h-68.101562c3.144531 4.140624 8.113281 6.816406 13.714843 6.828124h40.675782c5.601562-.011718 10.570312-2.6875 13.710937-6.828124" fill="#fad0a7"/><path d="m203.222656 102.398438h-15.359375c-3.140625 4.140624-8.113281 6.816406-13.714843 6.828124h-40.671876c-5.601562-.011718-10.574218-2.683593-13.714843-6.828124h-15.359375c4.265625 11.941406 15.667968 20.476562 29.074218 20.480468h40.671876c13.40625-.003906 24.808593-8.539062 29.074218-20.480468" fill="#aaacb7"/><path d="m116.265625 197.972656c0 15.082032 16.8125 27.308594 37.546875 27.308594 20.738281 0 37.546875-12.226562 37.546875-27.308594zm0 0" fill="#54596e"/></svg>