<?xml version="1.0"?>
<svg xmlns="http://www.w3.org/2000/svg" id="Layer_1_copy_2" data-name="Layer 1 copy 2" viewBox="0 0 64 64" width="512" height="512"><path d="M8,63V41.98L4.48,44.15A.986.986,0,0,0,4,45V63a1,1,0,0,0,1,1H9A1,1,0,0,1,8,63Z"/><circle cx="27.5" cy="25.5" r="2.5"/><circle cx="36.5" cy="25.5" r="2.5"/><path d="M56,64a1,1,0,0,0,1-1V43a.99.99,0,0,0-.49-.86L47,36.43V13a1,1,0,0,0-1-1H28.11A11.118,11.118,0,0,0,17,23.11V36.44l-7,4.31V63a1,1,0,0,1-1,1H31V61a1,1,0,0,1,2,0v3ZM32,16A11.012,11.012,0,0,1,43,27c0,3.49-1.653,5.6-5,6.463V35a1,1,0,0,1-1,1H35V33a1,1,0,0,0-2,0v3H31V33a1,1,0,0,0-2,0v3H27a1,1,0,0,1-1-1V33.464C22.653,32.6,21,30.49,21,27A11.012,11.012,0,0,1,32,16ZM29,39V38a1,1,0,0,1,2,0v1h2V38a1,1,0,0,1,2,0v1h1V38a1,1,0,0,1,2,0v2a1,1,0,0,1-1,1H27a1,1,0,0,1-1-1V38a1,1,0,0,1,2,0v1Zm3,20a1,1,0,0,1-1-1V46.677l-9.372-3.749a1,1,0,1,1,.743-1.857l9.608,3.843,8.614-3.828a1,1,0,1,1,.813,1.827L33,46.65V58A1,1,0,0,1,32,59Z"/><path d="M10,7c4.92.03,26.28.15,29.04.33a26.317,26.317,0,0,1,7.5,2.56,1,1,0,0,0,1.31-1.42C43.31,1.14,32.55.05,32,0H9A1,1,0,0,0,8,1V41.98l2-1.23Z"/></svg>
