<svg height="512" viewBox="0 0 512 512" width="512" xmlns="http://www.w3.org/2000/svg"><g id="Sickle-2" data-name="Sickle"><g id="Flat"><path d="m24.812 476.1-22.628-22.627a8 8 0 0 1 0-11.314l407.84-407.84a8.059 8.059 0 0 1 11.314 0l22.627 22.627a8 8 0 0 1 0 11.313l-407.84 407.841a8.073 8.073 0 0 1 -11.313 0z" fill="#f09b73"/><path d="m511.763 262.846c-.936-43.293-15.42-108.268-79.111-171.959l-45.252-45.255a8 8 0 0 0 -11.314 0l-45.257 45.255a8 8 0 0 0 0 11.313l45.254 45.255c56.717 56.721 77.708 113.227 85.326 150.645 12.087 59.366-3.924 71.149 7.066 77.029a8 8 0 0 0 9.432-1.4c17.093-17.09 34.975-59.079 33.856-110.883z" fill="#e2dbd5"/><path d="m420.382 78.617a116.954 116.954 0 0 1 -88.963 24.173l44.664 44.665a8 8 0 0 0 11.314 0l45.255-45.255a8 8 0 0 0 0-11.313z" fill="#d9d1cc"/><path d="m505.161 213.86a152.148 152.148 0 0 1 -46.913 70.752c1.245 4.719 2.3 9.231 3.161 13.485 12.087 59.366-3.924 71.149 7.066 77.029a8 8 0 0 0 9.432-1.4c17.091-17.091 34.975-59.08 33.856-110.884a222.692 222.692 0 0 0 -6.602-48.982z" fill="#d9d1cc"/><path d="m96.126 348.217-93.942 93.942a8 8 0 0 0 0 11.314l22.628 22.627a8.073 8.073 0 0 0 11.313 0l126.927-126.927a175.731 175.731 0 0 1 -66.926-.956z" fill="#e58b6c"/><circle cx="440" cy="143.975" fill="#efebe8" r="16"/><circle cx="456" cy="175.975" fill="#efebe8" r="8"/><circle cx="300" cy="171.975" fill="#f2bba5" r="12"/><circle cx="280" cy="199.975" fill="#f2bba5" r="8"/><circle cx="376" cy="71.975" fill="#efebe8" r="8"/></g></g></svg>