<?xml version="1.0" encoding="iso-8859-1"?>
<!-- Generator: Adobe Illustrator 19.0.0, SVG Export Plug-In . SVG Version: 6.00 Build 0)  -->
<svg version="1.1" id="Capa_1" xmlns="http://www.w3.org/2000/svg" xmlns:xlink="http://www.w3.org/1999/xlink" x="0px" y="0px"
	 viewBox="0 0 512 512" style="enable-background:new 0 0 512 512;" xml:space="preserve">
<path style="fill:#A78966;" d="M442.28,68.45c-20.328-29.568-60.774-37.059-90.343-16.732
	c-29.568,20.328-94.965,100.584-74.639,130.152c20.326,29.568,118.681-2.751,148.249-23.077
	C455.115,138.466,462.606,98.019,442.28,68.45z M349.006,162.309c-20.88,5.315-34.727,6.132-42.863,5.571
	c-3.934-0.271-6.609-4.16-5.453-7.93c2.391-7.796,8.113-20.432,20.551-38.025c15.953-22.562,35.238-42.077,45.285-48.983
	c17.818-12.25,42.281-7.719,54.53,10.099c12.25,17.818,7.718,42.28-10.1,54.53C400.911,144.477,375.784,155.496,349.006,162.309z"/>
<path style="fill:#957856;" d="M410.957,137.57c-10.046,6.906-35.172,17.925-61.951,24.739c-20.881,5.314-34.727,6.132-42.863,5.571
	c-3.934-0.271-6.609-4.161-5.453-7.93c2.391-7.796,8.113-20.432,20.551-38.025c15.953-22.562,35.238-42.077,45.285-48.983
	c3.573-2.456,7.413-4.226,11.367-5.361c-8.714-5.766-18.516-10.333-29.084-13.589c-30.777,23.439-91.15,99.313-71.512,127.878
	c18.265,26.568,99.521,3.17,137.272-16.597c3.08-11.062,4.195-22.374,3.095-33.548C415.695,133.877,413.462,135.848,410.957,137.57z
	"/>
<circle style="fill:#B39A7C;" cx="293.478" cy="155.156" r="14.8"/>
<path style="fill:#B6E892;" d="M293.099,166.438v-91.15H177.041v91.15c0,15.796-8.608,30.361-22.495,37.89
	c-57.149,30.988-96.262,93.922-96.262,166.529c0,40.524,12.184,78.036,32.887,108.662C105.042,500.039,128.49,512,153.257,512
	h163.626c24.767,0,48.216-11.961,62.086-32.48c20.703-30.627,32.888-68.139,32.888-108.664c0-72.607-39.113-135.542-96.262-166.529
	C301.707,196.799,293.099,182.234,293.099,166.438z"/>
<path style="fill:#A4E276;" d="M158.709,479.52c-20.703-30.627-32.886-68.139-32.886-108.662
	c0-72.607,39.113-135.542,96.262-166.529c13.886-7.53,22.495-22.094,22.495-37.89v-91.15h-67.538v91.15
	c0,15.796-8.608,30.36-22.495,37.89c-57.149,30.988-96.262,93.922-96.262,166.529c0,40.524,12.184,78.036,32.887,108.662
	C105.042,500.04,128.491,512,153.257,512h67.538C196.028,512,172.579,500.04,158.709,479.52z"/>
<path style="fill:#91DC5A;" d="M285.454,99.569H184.686c-17.814,0-32.39-14.575-32.39-32.39l0,0c0-17.814,14.575-32.39,32.39-32.39
	h100.768c17.814,0,32.39,14.575,32.39,32.39l0,0C317.844,84.993,303.268,99.569,285.454,99.569z"/>
<path style="fill:#D9CCBC;" d="M288.175,184.387h-106.21c-7.939,0-14.433-6.495-14.433-14.433l0,0
	c0-7.939,6.495-14.433,14.433-14.433h106.21c7.939,0,14.433,6.495,14.433,14.433l0,0
	C302.608,177.893,296.112,184.387,288.175,184.387z"/>
<path style="fill:#C0AB91;" d="M225.942,169.954c0-7.939,6.495-14.433,14.433-14.433h-58.41c-7.939,0-14.433,6.494-14.433,14.433
	s6.495,14.433,14.433,14.433h58.41C232.437,184.387,225.942,177.893,225.942,169.954z"/>
<path style="fill:#FF0C38;" d="M136.305,290.724c-15.371,22.444-24.037,50.907-24.037,80.134c0,28.443,8.17,55.563,23.628,78.432
	c3.64,5.383,10.292,8.727,17.361,8.727h163.626c7.069,0,13.722-3.344,17.364-8.729c15.457-22.866,24.066-54.404,23.626-86.252
	L136.305,290.724z"/>
<path style="fill:#A5001E;" d="M209.79,260.31c36.663,8.59,156.231,67.955,147.641,104.618s-142.084,36.739-178.747,28.15
	c-36.663-8.59-59.421-45.273-50.831-81.936C136.444,274.478,173.127,251.721,209.79,260.31z"/>
<g>
	<circle style="fill:#FF0C38;" cx="283.65" cy="293.643" r="34.192"/>
	<circle style="fill:#FF0C38;" cx="239.497" cy="221.777" r="18.444"/>
</g>
<path style="fill:#CC7400;" d="M245.517,140.356h-20.895c-9.938,0-17.994-8.056-17.994-17.994V17.994
	C206.628,8.056,214.684,0,224.622,0h20.895c9.938,0,17.994,8.056,17.994,17.994v104.368
	C263.512,132.3,255.455,140.356,245.517,140.356z"/>
<path style="fill:#AA6100;" d="M206.628,34.789v87.573c0,9.938,8.057,17.994,17.994,17.994h20.895
	c9.938,0,17.994-8.056,17.994-17.994V34.789H206.628z"/>
<rect x="206.624" y="34.789" style="fill:#9A4C00;" width="56.887" height="64.78"/>
<g>
</g>
<g>
</g>
<g>
</g>
<g>
</g>
<g>
</g>
<g>
</g>
<g>
</g>
<g>
</g>
<g>
</g>
<g>
</g>
<g>
</g>
<g>
</g>
<g>
</g>
<g>
</g>
<g>
</g>
</svg>
