<svg id="Capa_1" enable-background="new 0 0 512 512" height="512" viewBox="0 0 512 512" width="512" xmlns="http://www.w3.org/2000/svg"><path d="m262.302 188.424c-5.604 0-10.966-2.282-14.85-6.321s-5.956-9.485-5.737-15.085c1.779-45.667 19.841-87.71 50.858-118.384 28.579-28.263 65.554-44.472 101.444-44.472 33.738 0 61.187 27.448 61.187 61.186 0 36.508-23.283 69.366-65.56 92.523-35.452 19.417-81.865 30.553-127.342 30.553zm131.714-143.055c-24.759 0-51.849 12.174-72.469 32.564-18.428 18.224-30.841 41.901-36.03 68.189 30.841-2.894 60.668-11.432 84.33-24.393 38.414-21.04 44.149-44.356 44.149-56.382 0-11.016-8.963-19.978-19.98-19.978z" fill="#efd176"/><path d="m139.244 512h145.027c18.936 0 36.963-8.476 48.761-23.287 21.085-26.47 33.686-59.997 33.686-96.469 0-59.325-33.34-110.858-82.303-136.898-7.174-3.815-11.654-11.278-11.654-19.404v-78.478h-122.008v78.478c0 8.125-4.48 15.588-11.654 19.404-48.963 26.04-82.303 77.573-82.303 136.898 0 36.472 12.601 69.999 33.686 96.469 11.799 14.811 29.826 23.287 48.762 23.287z" fill="#a3defe"/><path d="m137.525 256.218c-48.096 26.302-80.729 77.344-80.729 136.026 0 36.472 12.601 69.999 33.686 96.469 11.799 14.811 29.826 23.287 48.762 23.287h72.449c-75.92-47.69-94.21-181.125-74.168-255.782z" fill="#7acefa"/><path d="m196.142 378.055v76.289h157.618c8.327-19.013 12.957-40.014 12.957-62.1.001-40.644-71.623-70.497-170.575-14.189z" fill="#908cd6"/><path d="m283.371 157.464h-143.227c-9.566 0-17.321-7.755-17.321-17.321v-27.56c0-9.566 7.755-17.321 17.321-17.321h143.227c9.566 0 17.321 7.755 17.321 17.321v27.56c0 9.567-7.755 17.321-17.321 17.321z" fill="#7acefa"/><path d="m139.244 512h145.027c18.936 0 36.963-8.476 48.761-23.287 21.085-26.47 33.686-59.997 33.686-96.469 0 85.306-174.442-82.244-306.913-30.496-1.968 9.861-3.008 20.057-3.008 30.496 0 36.472 12.601 69.999 33.686 96.469 11.798 14.811 29.825 23.287 48.761 23.287z" fill="#b49cdc"/><path d="m139.244 512h145.027c18.936 0 36.963-8.476 48.761-23.287 21.085-26.47 33.686-59.997 33.686-96.469 0 85.306-174.442-82.244-306.913-30.496-1.968 9.861-3.008 20.057-3.008 30.496 0 36.472 12.601 69.999 33.686 96.469 11.798 14.811 29.825 23.287 48.761 23.287z" fill="#b49cdc"/><g fill="#908cd6"><path d="m59.804 361.747c-1.968 9.861-3.008 20.057-3.008 30.497 0 36.472 12.601 69.999 33.686 96.469 11.799 14.811 29.826 23.287 48.762 23.287h72.449c-48.792-30.65-73.782-96.712-80.09-159.831-24.443-1.784-48.756.577-71.799 9.578z"/><ellipse cx="281.43" cy="468.317" rx="7.726" ry="7.726" transform="matrix(.973 -.23 .23 .973 -100.069 77.188)"/><circle cx="226.201" cy="424.549" r="7.726"/></g><ellipse cx="123.936" cy="443.678" fill="#b49cdc" rx="7.726" ry="7.726" transform="matrix(.973 -.23 .23 .973 -98.621 40.343)"/><path d="m267.272 0h-111.03c-12.761 0-22.35 11.646-19.9 24.17l13.906 71.092h123.018l13.906-71.092c2.45-12.524-7.139-24.17-19.9-24.17z" fill="#e1b89a"/><path d="m189.725 0h-33.483c-12.761 0-22.35 11.646-19.9 24.17l13.906 71.093h63.662c-20.244-27.172-26.562-66.833-24.185-95.263z" fill="#d2996f"/><ellipse cx="174.934" cy="37.048" fill="#e1b89a" rx="7.726" ry="7.726" transform="matrix(.973 -.23 .23 .973 -3.832 41.182)"/><ellipse cx="213.91" cy="59.31" fill="#d2996f" rx="7.726" ry="7.726" transform="matrix(.973 -.23 .23 .973 -7.904 50.733)"/><ellipse cx="246.394" cy="34.611" fill="#d2996f" rx="7.726" ry="7.726" transform="matrix(.383 -.924 .924 .383 120.127 249.005)"/><ellipse cx="141.962" cy="321.028" fill="#fff" rx="25.753" ry="20.508"/><ellipse cx="281.552" cy="321.028" fill="#fff" rx="25.753" ry="20.508"/><path d="m156.971 308.786c-4.143 0-7.5-3.358-7.5-7.5v-10.527c0-4.142 3.357-7.5 7.5-7.5s7.5 3.358 7.5 7.5v10.527c0 4.142-3.358 7.5-7.5 7.5z" fill="#4e5660"/><path d="m266.543 308.786c-4.143 0-7.5-3.358-7.5-7.5v-10.527c0-4.142 3.357-7.5 7.5-7.5 4.142 0 7.5 3.358 7.5 7.5v10.527c0 4.142-3.358 7.5-7.5 7.5z" fill="#4e5660"/><path d="m211.757 315.053c-7.704 0-15.029-3.336-20.098-9.153-2.722-3.123-2.395-7.861.728-10.582 3.122-2.719 7.86-2.396 10.581.728 2.22 2.547 5.423 4.008 8.789 4.008 3.367 0 6.57-1.461 8.79-4.008 2.721-3.124 7.458-3.448 10.581-.728 3.123 2.721 3.449 7.459.728 10.582-5.069 5.817-12.395 9.153-20.099 9.153z" fill="#4e5660"/><path d="m287.556 198.672h-151.726c-11.379 0-20.604-9.224-20.604-20.604 0-11.379 9.224-20.604 20.604-20.604h151.726c11.379 0 20.604 9.224 20.604 20.604 0 11.379-9.225 20.604-20.604 20.604z" fill="#f7ef87"/><path d="m205.673 157.464h-69.843c-11.379 0-20.604 9.224-20.604 20.604s9.224 20.604 20.604 20.604h75.843c-7.124-10.046-10.611-27.448-6-41.208z" fill="#efd176"/></svg>