<?xml version="1.0" encoding="iso-8859-1"?>
<!-- Generator: Adobe Illustrator 19.0.0, SVG Export Plug-In . SVG Version: 6.00 Build 0)  -->
<svg version="1.1" id="Capa_1" xmlns="http://www.w3.org/2000/svg" xmlns:xlink="http://www.w3.org/1999/xlink" x="0px" y="0px"
	 viewBox="0 0 512 512" style="enable-background:new 0 0 512 512;" xml:space="preserve">
<path style="fill:#C6E2F7;" d="M194.207,79.448v385.139c0,26.183,21.23,47.413,47.413,47.413h28.751
	c26.191,0,47.422-21.23,47.422-47.413V79.448H194.207z"/>
<path style="fill:#366DB6;" d="M317.793,203.017c-17.532-23.146-52.039-23.94-61.793,0c-10.24,24.011-44.694,23.208-61.793,0v0.018
	v261.553c0,26.183,21.23,47.413,47.413,47.413h28.751c26.191,0,47.422-21.23,47.422-47.413V203.034V203.017z"/>
<g>
	<path style="fill:#BE6E41;" d="M300.138,61.793h-88.276V12.341C211.862,5.526,217.388,0,224.203,0h63.594
		c6.815,0,12.341,5.526,12.341,12.341V61.793z"/>
	<path style="fill:#BE6E41;" d="M278.881,132.414h-45.762c-6.868,0-12.429-5.561-12.429-12.429V88.276h70.621v31.709
		C291.31,126.852,285.749,132.414,278.881,132.414z"/>
</g>
<path style="fill:#6C4127;" d="M326.621,97.103H185.379c-4.873,0-8.828-3.955-8.828-8.828v-35.31c0-4.873,3.955-8.828,8.828-8.828
	h141.241c4.873,0,8.828,3.955,8.828,8.828v35.31C335.448,93.149,331.494,97.103,326.621,97.103z"/>
<g>
	<path style="fill:#1F436D;" d="M203.034,397.241c-3.116,0-6.056,0.636-8.828,1.624v49.726c2.772,0.98,5.711,1.615,8.828,1.615
		c14.627,0,26.483-11.855,26.483-26.483C229.517,409.097,217.662,397.241,203.034,397.241z"/>
	<rect x="238.345" y="291.31" style="fill:#1F436D;" width="44.138" height="44.138"/>
</g>
<g>
</g>
<g>
</g>
<g>
</g>
<g>
</g>
<g>
</g>
<g>
</g>
<g>
</g>
<g>
</g>
<g>
</g>
<g>
</g>
<g>
</g>
<g>
</g>
<g>
</g>
<g>
</g>
<g>
</g>
</svg>
