<svg id="monster" height="512" viewBox="0 0 64 64" width="512" xmlns="http://www.w3.org/2000/svg"><path d="m61 37c0 16.02-12.98 23-29 23s-29-6.98-29-23a29 29 0 0 1 58 0z" fill="#ff6243"/><path d="m40.78 20h-17.56a9.006 9.006 0 0 1 17.56 0z" fill="#898890"/><path d="m41 22a9 9 0 0 1 -18 0 9.356 9.356 0 0 1 .22-2h17.56a9.356 9.356 0 0 1 .22 2z" fill="#ffda44"/><g fill="#ab2300"><path d="m23 40.63v10.42c-2.47 1.75-4 2.64-4-1.05a12.921 12.921 0 0 1 4-9.37z"/><path d="m41 40.63a12.921 12.921 0 0 1 4 9.37c0 3.69-1.53 2.8-4 1.05z"/><path d="m38.49 38.74-3.81 8.7a8.382 8.382 0 0 0 -5.36 0l-3.81-8.7a12.973 12.973 0 0 1 12.98 0z"/></g><path d="m34.82 20a2.772 2.772 0 0 1 .18 1 3 3 0 0 1 -6 0 2.772 2.772 0 0 1 .18-1z" fill="#d80027"/><path d="m29.32 47.44a24.312 24.312 0 0 0 -6.32 3.61v-18.05l2.51 5.74z" fill="#e0e0e2"/><path d="m41 40.63v10.42a24.312 24.312 0 0 0 -6.32-3.61l3.81-8.7 2.51-5.74z" fill="#e0e0e2"/><ellipse cx="15" cy="19.5" fill="#ff8169" rx="3.5" ry="2" transform="matrix(.539 -.842 .842 .539 -9.51 21.62)"/><path d="m52 16a28.9 28.9 0 0 1 8 20c0 16.02-12.98 23-29 23-9.151 0-17.3-2.282-22.619-7.221 5.257 5.631 13.872 8.221 23.619 8.221 16.02 0 29-6.98 29-23a28.911 28.911 0 0 0 -9-21z" fill="#803122"/></svg>