<?xml version="1.0" encoding="iso-8859-1"?>
<!-- Generator: Adobe Illustrator 19.0.0, SVG Export Plug-In . SVG Version: 6.00 Build 0)  -->
<svg version="1.1" id="Capa_1" xmlns="http://www.w3.org/2000/svg" xmlns:xlink="http://www.w3.org/1999/xlink" x="0px" y="0px"
	 viewBox="0 0 512 512" style="enable-background:new 0 0 512 512;" xml:space="preserve">
<path style="fill:#FD4E26;" d="M455.294,190.64c-0.6,16.5-12.29,29.7-30.3,28.8c-17.1,0-29.7-12.9-29.7-29.7
	c-5.09-48.6-46.19-88.8-93.6-89.7c-2.1,0-4.5,0.3-6.59,0.3c-25.18,1.02-44.97,6.72-59.8,15.72c-0.02,0.01-0.05,0.03-0.07,0.04
	c-32.81,19.97-41.29,56.14-30.13,93.74c11.1,36.6,48.3,73.26,96.59,87.36c20.35,6.28,42.48,8.39,65.22,5.72
	c0.06-0.01,0.12-0.01,0.18-0.02l5.7,29.4c-11.7,3-27.89,30.6-27.89,74.7c0,45.9,17.7,75,30,75l-3.18,29.87
	c-25-1.81-47.91-5.07-70.03-10.67c-152.7-37.5-237.89-157.86-245.09-270.36c-4.2-72.9,20.09-139.2,66.59-181.5
	c8.01-7.37,16.57-13.92,25.64-19.64c0.06-0.04,0.13-0.08,0.19-0.13c41.51-26.19,93.66-35.23,152.67-26.13
	C395.294,16.64,462.794,98.84,455.294,190.64z"/>
<path style="fill:#FD3018;" d="M455.294,190.64c-0.6,16.5-12.29,29.7-30.3,28.8c-17.1,0-29.7-12.9-29.7-29.7
	c-5.09-48.6-46.19-88.8-93.6-89.7c-2.1,0-4.5,0.3-6.59,0.3c-25.18,1.02-44.97,6.72-59.8,15.72c-0.02,0.01-0.05,0.03-0.07,0.04
	l-86.4-86.4c0.06-0.04,0.13-0.08,0.19-0.13c41.51-26.19,93.66-35.23,152.67-26.13C395.294,16.64,462.794,98.84,455.294,190.64z"/>
<g>
	<path style="fill:#FEA832;" d="M148.08,378.815c-23.789-23.789-28.447-56.396-10.605-74.238
		c17.871-17.813,50.449-13.169,74.238,10.605c23.789,23.789,28.447,56.396,10.605,74.238
		C202.665,409.073,169.032,399.768,148.08,378.815z"/>
	<path style="fill:#FEA832;" d="M101.893,254.999c-25.239,0-45-25.614-45-59.262s19.761-60,45-60s45,26.353,45,60
		S127.132,254.999,101.893,254.999z"/>
</g>
<path style="fill:#E61E14;" d="M374.901,302c-2.75,0-5.39,0.31-7.99,0.92c-0.6,0.13-1.2,0.29-1.8,0.46
	c-29.56,7.69-50.21,50.3-50.21,103.62c0,57.98,24.2,102.16,56.82,104.87c1.05,0.09,2.11,0.13,3.18,0.13c34.2,0,60-45.15,60-105
	S409.101,302,374.901,302z"/>
<path style="fill:#FEA832;" d="M145.882,79.751c-11.895-11.895-9.565-32.856,5.303-47.725c14.868-14.839,35.859-17.168,47.725-5.303
	c11.895,11.895,9.565,32.856-5.303,47.725C180.094,87.984,158.683,92.552,145.882,79.751z"/>
<path style="fill:#FE9923;" d="M193.594,74.46c0.004-0.004,0.008-0.008,0.012-0.012c14.868-14.868,17.197-35.83,5.303-47.725
	c-11.865-11.865-32.856-9.536-47.725,5.303c-0.004,0.004-0.008,0.009-0.012,0.012L193.594,74.46z"/>
<g>
</g>
<g>
</g>
<g>
</g>
<g>
</g>
<g>
</g>
<g>
</g>
<g>
</g>
<g>
</g>
<g>
</g>
<g>
</g>
<g>
</g>
<g>
</g>
<g>
</g>
<g>
</g>
<g>
</g>
</svg>
