<svg id="Layer_1" enable-background="new 0 0 512 512" height="512" viewBox="0 0 512 512" width="512" xmlns="http://www.w3.org/2000/svg"><g><g><path d="m347.708 320.8h-112c-8.837 0-16-7.163-16-16v18.746l-38.627 38.627c-6.002 6.001-9.373 14.141-9.373 22.627v64c-17.673 0-32 14.327-32 32 0 8.836 7.163 16 16 16h64c8.837 0 16-7.163 16-16v-82.745l54.627-54.627c2.026-2.026 3.719-4.259 5.088-6.627h52.285z" fill="#323232"/></g><g><path d="m107.708 16.8h32c8.837 0 16 7.163 16 16h-48c-4.418 0-8-3.582-8-8 0-4.418 3.582-8 8-8z" fill="#646464"/></g><g><path d="m251.708 160.8h-80v-56c0-4.418-3.582-8-8-8h-8v-64h-48v32c0 8.836 7.163 16 16 16v16h-8c-4.418 0-8 3.582-8 8v88c0 11.842 6.438 22.175 16 27.708v44.292c0 4.418 3.582 8 8 8s8-3.582 8-8v-32c0-4.418 3.582-8 8-8s8 3.582 8 8 3.582 8 8 8 8-3.582 8-8v-8h80z" fill="#323232"/></g><g><path d="m147.708 48.8h-20c-2.209 0-4 1.791-4 4 0 6.627 5.373 12 12 12h4c0 8.837 7.164 16 16 16v-24c0-4.418-3.582-8-8-8z" fill="#646464"/></g><g><path d="m331.708 128.8h-56v32h-24c-17.673 0-32 14.327-32 32v112c0 8.836 7.163 16 16 16h96c8.837 0 16-7.164 16-16v-144h16c0-17.673-14.327-32-32-32z" fill="#464646"/></g><g><path d="m411.708 448.8c0-8.189-3.124-16.379-9.373-22.627l-54.627-54.627v-66.746c0-17.673-14.327-32-32-32s-32 14.327-32 32v80c0 8.487 3.371 16.626 9.373 22.627l41.373 41.373h-2.746c-17.673 0-32 14.327-32 32 0 8.836 7.163 16 16 16h80c8.837 0 16-7.164 16-16z" fill="#464646"/></g><g><path d="m347.708 32.8v16h-12c-2.209 0-4 1.791-4 4 0 6.627 5.373 12 12 12h4c0 8.836 7.163 16 16 16v16h32v-64z" fill="#323232"/></g><g><path d="m379.708 16.8h-32c-4.418 0-8 3.582-8 8s3.582 8 8 8h32v32c0 8.837 7.164 16 16 16v-48c0-8.837-7.163-16-16-16z" fill="#646464"/></g><g><g><path d="m211.708 184.8h72c8.837 0 16-7.163 16-16v-8c8.837 0 16-7.163 16-16v-40c0-22.091-17.909-40-40-40h-40c-22.091 0-40 17.909-40 40v64c0 8.837 7.164 16 16 16z" fill="#464646"/></g><g><path d="m259.708 184.8h-48c-8.837 0-16-7.163-16-16v-64c0-22.091 17.909-40 40-40 22.091 0 40 17.909 40 40v64c0 8.837-7.163 16-16 16z" fill="#646464"/></g></g><g><circle cx="219.708" cy="112.8" fill="#faa51e" r="10.667"/></g><g><circle cx="251.708" cy="112.8" fill="#faa51e" r="10.667"/></g><g><path d="m403.708 96.8h-48c-4.418 0-8 3.582-8 8v56c-17.673 0-32 14.327-32 32s14.327 32 32 32h16v40c0 4.418 3.582 8 8 8s8-3.582 8-8v-32c0-4.418 3.582-8 8-8s8 3.582 8 8 3.582 8 8 8 8-3.582 8-8v-128c0-4.418-3.582-8-8-8z" fill="#646464"/></g></g></svg>