<svg id="Capa_1" enable-background="new 0 0 512 512" height="512" viewBox="0 0 512 512" width="512" xmlns="http://www.w3.org/2000/svg"><path d="m495.484 443h-470.484c-9.122 0-16.516-7.395-16.516-16.516v-257.194c0-9.122 7.395-16.516 16.516-16.516h470.484c9.122 0 16.516 7.395 16.516 16.516v264.258z" fill="#f6d190"/><path d="m512 185.806v-16.516l-22.333-5.624h-470.667l-19 5.624v264.258c0 9.122 7.395 16.516 16.516 16.516h478.968c9.121 0 16.516-7.395 16.516-16.516h-478.968c-9.122 0-16.516-7.395-16.516-16.516v-215.226c0-8.837 7.163-16 16-16z" fill="#ecbd83"/><path d="m470.71 417.032h-429.42c-4.561 0-8.258-3.697-8.258-8.258v-41.29l7.968-6.484-7.968-10.032v-33.033l7.968-6.935-7.968-9.581v-33.032l7.968-8.72-7.968-7.795v-33.033c0-4.561 3.697-8.258 8.258-8.258h429.42c4.561 0 8.258 3.697 8.258 8.258v33.033l-5.301 9.796 5.301 6.72v33.032l-5.301 7.58 5.301 8.936v33.033l-5.301 9.365 5.301 7.151v41.29c0 4.56-3.698 8.257-8.258 8.257z" fill="#966a5b"/><g fill="#b57f5f"><path d="m33.032 251.871h445.935v16.516h-445.935z"/><path d="m33.032 301.419h445.935v16.516h-445.935z"/><path d="m33.032 350.968h445.935v16.516h-445.935z"/></g><path d="m289.032 276.645c-4.565 0-8.258-3.694-8.258-8.258v-33.032c0-13.661-11.113-24.774-24.774-24.774s-24.774 11.113-24.774 24.774v33.032c0 4.565-3.694 8.258-8.258 8.258s-8.258-3.694-8.258-8.258v-33.032c0-22.766 18.524-41.29 41.29-41.29s41.29 18.524 41.29 41.29v33.032c0 4.565-3.693 8.258-8.258 8.258z" fill="#e2a975"/><path d="m289.032 260.129h-66.065c-4.561 0-8.258 3.697-8.258 8.258v16.516c0 22.804 18.486 41.29 41.29 41.29s41.29-18.486 41.29-41.29v-16.516c.001-4.561-3.696-8.258-8.257-8.258z" fill="#ffe09f"/><path d="m256 301.419c-4.561 0-8.258-3.697-8.258-8.258v-8.258c0-4.561 3.697-8.258 8.258-8.258 4.561 0 8.258 3.697 8.258 8.258v8.258c0 4.561-3.697 8.258-8.258 8.258z" fill="#966a5b"/><path d="m495.484 61.935h-16.516l-27.301 12.398h-392.667l-25.968-12.398h-16.516c-9.121 0-16.516 7.395-16.516 16.517v90.839h512v-90.839c0-9.122-7.395-16.517-16.516-16.517z" fill="#ffe09f"/><path d="m470.71 144.516h-429.42c-4.561 0-8.258-3.697-8.258-8.258v-33.032l11.968-6.226-11.968-10.29v-24.775h445.935v24.775l-10.634 8.957 10.634 7.559v33.032c.001 4.561-3.697 8.258-8.257 8.258z" fill="#b57f5f"/><path d="m280.774 128h-49.548c-9.122 0-16.516 7.395-16.516 16.516v33.032c0 4.561 3.697 8.258 8.258 8.258h66.065c4.561 0 8.258-3.697 8.258-8.258v-33.032c-.001-9.121-7.395-16.516-16.517-16.516z" fill="#fff5d7"/><path d="m256 227.097c-4.565 0-8.258-3.694-8.258-8.258v-57.806c0-4.565 3.694-8.258 8.258-8.258s8.258 3.694 8.258 8.258v57.806c0 4.564-3.693 8.258-8.258 8.258z" fill="#f6d190"/><path d="m33.032 86.71h445.935v16.516h-445.935z" fill="#c38c66"/></svg>