<?xml version="1.0" encoding="iso-8859-1"?>
<!-- Generator: Adobe Illustrator 19.0.0, SVG Export Plug-In . SVG Version: 6.00 Build 0)  -->
<svg version="1.1" id="Layer_1" xmlns="http://www.w3.org/2000/svg" xmlns:xlink="http://www.w3.org/1999/xlink" x="0px" y="0px"
	 viewBox="0 0 512 512" style="enable-background:new 0 0 512 512;" xml:space="preserve">
<path style="fill:#FF8985;" d="M444.484,109.714H67.516C30.382,109.714,0,140.097,0,177.231v48.293
	c0,18.567,15.191,33.758,33.758,33.758h444.484c18.567,0,33.758-15.191,33.758-33.758v-48.293
	C512,140.097,481.618,109.714,444.484,109.714z"/>
<g>
	<path style="fill:#FFDECE;" d="M335.238,225.524c0-20.456,16.717-37.041,37.175-37.041c20.456,0,37.041,16.583,37.041,37.041
		l11.253,63.359H335.24l-11.253-31.679L335.238,225.524z"/>
	<path style="fill:#FFDECE;" d="M176.762,225.524c0-20.456-16.717-37.041-37.175-37.041c-20.456,0-37.041,16.583-37.041,37.041
		l-11.253,63.359h85.467l11.253-31.679L176.762,225.524z"/>
</g>
<path style="fill:#FFB033;" d="M295.686,188.484c-21.918,0-39.686,17.768-39.686,39.686l-11.253,30.357L256,288.883h79.238v-63.837
	C333.643,204.588,316.551,188.484,295.686,188.484z"/>
<g>
	<path style="fill:#FFD085;" d="M216.314,188.484c-20.865,0-37.957,16.105-39.552,36.561v63.837H256V228.17
		C256,206.252,238.232,188.484,216.314,188.484z"/>
	<path style="fill:#FFD085;" d="M443.848,188.484c-18.996,0-34.394,15.399-34.394,34.395v179.407c0,0,68.789-2.102,68.789-120.574
		c0-14.708,0-58.833,0-58.833C478.242,203.883,462.842,188.484,443.848,188.484z"/>
	<path style="fill:#FFD085;" d="M68.152,188.484c-18.995,0-34.394,15.399-34.394,34.395c0,0,0,44.124,0,58.833
		c0,118.472,68.789,120.574,68.789,120.574V222.879C102.547,203.883,87.148,188.484,68.152,188.484z"/>
</g>
<g>
</g>
<g>
</g>
<g>
</g>
<g>
</g>
<g>
</g>
<g>
</g>
<g>
</g>
<g>
</g>
<g>
</g>
<g>
</g>
<g>
</g>
<g>
</g>
<g>
</g>
<g>
</g>
<g>
</g>
</svg>
