<?xml version="1.0" encoding="iso-8859-1"?>
<!-- Generator: Adobe Illustrator 19.0.0, SVG Export Plug-In . SVG Version: 6.00 Build 0)  -->
<svg version="1.1" id="Layer_1" xmlns="http://www.w3.org/2000/svg" xmlns:xlink="http://www.w3.org/1999/xlink" x="0px" y="0px"
	 viewBox="0 0 512.003 512.003" style="enable-background:new 0 0 512.003 512.003;" xml:space="preserve">
<rect x="0.001" style="fill:#FCD577;" width="511.995" height="511.995"/>
<path style="fill:#415E72;" d="M512.001,104.425V84.188h-73.077c-5.668,0-10.263-4.595-10.263-10.263V0h-20.237v73.925
	c0,5.668-4.595,10.263-10.263,10.263H222.908c-5.668,0-10.263-4.595-10.263-10.263V0h-20.237v73.925
	c0,5.668-4.595,10.263-10.263,10.263H0.001v20.237h73.077c5.668,0,10.263,4.595,10.263,10.263v67.035
	c0,5.668-4.595,10.263-10.263,10.263H0.001v20.237h182.145c5.668,0,10.263,4.595,10.263,10.263v67.035
	c0,5.668-4.595,10.263-10.263,10.263H0.001v20.237h73.077c5.668,0,10.263,4.595,10.263,10.263v67.035
	c0,5.668-4.595,10.263-10.263,10.263H0.001v20.237h182.145c5.668,0,10.263,4.595,10.263,10.263v73.924h20.237v-73.924
	c0-5.668,4.595-10.263,10.263-10.263h175.254c5.668,0,10.263,4.595,10.263,10.263v73.924h20.237v-73.924
	c0-5.668,4.595-10.263,10.263-10.263h73.077v-20.24H329.856c-5.668,0-10.263-4.595-10.263-10.263v-67.035
	c0-5.668,4.595-10.263,10.263-10.263h182.145v-20.237h-73.077c-5.668,0-10.263-4.595-10.263-10.263v-67.034
	c0-5.668,4.595-10.263,10.263-10.263h73.077v-20.237H329.856c-5.668,0-10.263-4.595-10.263-10.263v-67.033
	c0-5.668,4.595-10.263,10.263-10.263h182.145V104.425z M289.094,407.577H113.839c-5.668,0-10.263-4.595-10.263-10.263v-67.035
	c0-5.668,4.595-10.263,10.263-10.263h175.256c5.668,0,10.263,4.595,10.263,10.263v67.035
	C299.356,402.982,294.762,407.577,289.094,407.577z M398.162,299.779H222.908c-5.668,0-10.263-4.595-10.263-10.263v-67.035
	c0-5.668,4.595-10.263,10.263-10.263h175.254c5.668,0,10.263,4.595,10.263,10.263v67.035
	C408.425,295.185,403.83,299.779,398.162,299.779z M289.094,191.984H113.839c-5.668,0-10.263-4.595-10.263-10.263v-67.034
	c0-5.668,4.595-10.263,10.263-10.263h175.256c5.668,0,10.263,4.595,10.263,10.263v67.035
	C299.356,187.389,294.762,191.984,289.094,191.984z"/>
<g>
</g>
<g>
</g>
<g>
</g>
<g>
</g>
<g>
</g>
<g>
</g>
<g>
</g>
<g>
</g>
<g>
</g>
<g>
</g>
<g>
</g>
<g>
</g>
<g>
</g>
<g>
</g>
<g>
</g>
</svg>
