<svg id="Layer_1" height="512" viewBox="0 0 128 128" width="512" xmlns="http://www.w3.org/2000/svg" data-name="Layer 1"><path d="m25.634 25.679h76.733a13.134 13.134 0 0 1 13.133 13.134v7.772a0 0 0 0 1 0 0h-103a0 0 0 0 1 0 0v-7.772a13.134 13.134 0 0 1 13.134-13.134z" fill="#cc1c17"/><path d="m115.5 48.411c0 7.66-9.217 19.482-9.217 19.482s-4.506-12.974-10.564-19.482c-7.042-7.566 2.332-17.439 11.925-14.272 5.527 1.825 7.856 6.612 7.856 14.272z" fill="#e2f2ef"/><path d="m12.5 48.411c0 7.66 9.217 19.482 9.217 19.482s4.506-12.974 10.564-19.482c7.042-7.566-2.332-17.439-11.925-14.272-5.527 1.825-7.856 6.612-7.856 14.272z" fill="#e2f2ef"/><path d="m35.134 85.271h57.732a13.134 13.134 0 0 1 13.134 13.129v3.916a0 0 0 0 1 0 0h-84a0 0 0 0 1 0 0v-3.916a13.134 13.134 0 0 1 13.134-13.129z" fill="#941111" transform="matrix(-1 0 0 -1 128 187.592)"/><path d="m22 83.782c0-6.247 7.517-15.888 7.517-15.888s3.675 10.581 8.615 15.888c5.743 6.17-1.9 14.222-9.725 11.64-4.507-1.489-6.407-5.393-6.407-11.64z" fill="#e2f2ef"/><path d="m106 83.782c0-6.247-7.517-15.888-7.517-15.888s-3.675 10.581-8.615 15.888c-5.743 6.17 1.9 14.222 9.725 11.64 4.507-1.489 6.407-5.393 6.407-11.64z" fill="#e2f2ef"/><path d="m99.589 34.37c-5.652 2.265-8.823 8.721-3.87 14.041 6.058 6.508 10.564 19.482 10.564 19.482s.55-11.822.55-19.482c0-7.367-2.162-12.068-7.244-14.041z" fill="#c8e2dd"/><path d="m28.412 34.37c5.652 2.265 8.823 8.721 3.87 14.041-6.058 6.508-10.564 19.482-10.564 19.482s-.55-11.822-.55-19.482c0-7.367 2.162-12.068 7.244-14.041z" fill="#c8e2dd"/><path d="m47.75 45.248c0 4.487-8.125 15.815-8.125 15.815s-8.125-11.328-8.125-15.815a8.125 8.125 0 1 1 16.25 0z" fill="#c8e2dd"/><path d="m64 45.248c0 4.487-8.125 15.815-8.125 15.815s-8.125-11.328-8.125-15.815a8.125 8.125 0 1 1 16.25 0z" fill="#c8e2dd"/><path d="m80.25 45.248c0 4.487-8.125 15.815-8.125 15.815s-8.125-11.328-8.125-15.815a8.125 8.125 0 1 1 16.25 0z" fill="#e2f2ef"/><path d="m96.5 45.248c0 4.487-8.125 15.815-8.125 15.815s-8.125-11.328-8.125-15.815a8.125 8.125 0 1 1 16.25 0z" fill="#e2f2ef"/><path d="m36.5 37.747a8.126 8.126 0 0 0 -5 7.5c0 4.487 8.125 15.815 8.125 15.815s1.875-11.327 1.875-15.814a8.126 8.126 0 0 0 -5-7.501z" fill="#e2f2ef"/><path d="m52.75 37.747a8.126 8.126 0 0 0 -5 7.5c0 4.487 8.125 15.815 8.125 15.815s1.875-11.327 1.875-15.814a8.126 8.126 0 0 0 -5-7.501z" fill="#e2f2ef"/><g fill="#c8e2dd"><path d="m69 37.747a8.126 8.126 0 0 0 -5 7.5c0 4.487 8.125 15.815 8.125 15.815s1.875-11.327 1.875-15.814a8.126 8.126 0 0 0 -5-7.501z"/><path d="m85.25 37.747a8.126 8.126 0 0 0 -5 7.5c0 4.487 8.125 15.815 8.125 15.815s1.875-11.327 1.875-15.814a8.126 8.126 0 0 0 -5-7.501z"/><path d="m92.76 95.127c3.947-1.671 5.627-5.472 5.627-11.345 0-6.247.1-15.888.1-15.888s-3.675 10.581-8.615 15.888c-3.966 4.256-1.556 9.406 2.888 11.345z"/><path d="m35.24 95.127c-3.947-1.671-5.627-5.472-5.627-11.345 0-6.247-.1-15.888-.1-15.888s3.675 10.581 8.615 15.888c3.966 4.256 1.556 9.406-2.888 11.345z"/><path d="m77.252 86.362c0-3.66 6.626-12.9 6.626-12.9s6.622 9.238 6.622 12.9a6.626 6.626 0 1 1 -13.252 0z"/><path d="m64 86.362c0-3.66 6.626-12.9 6.626-12.9s6.626 9.238 6.626 12.9a6.626 6.626 0 1 1 -13.252 0z"/></g><path d="m50.748 86.362c0-3.66 6.626-12.9 6.626-12.9s6.626 9.238 6.626 12.9a6.626 6.626 0 1 1 -13.252 0z" fill="#e2f2ef"/><path d="m37.5 86.362c0-3.66 6.626-12.9 6.626-12.9s6.626 9.238 6.626 12.9a6.626 6.626 0 1 1 -13.252 0z" fill="#e2f2ef"/><path d="m46.685 92.473a6.627 6.627 0 0 0 4.063-6.111c0-3.66-6.626-12.9-6.626-12.9s-1.5 9.238-1.5 12.9a6.627 6.627 0 0 0 4.063 6.111z" fill="#c8e2dd"/><path d="m59.938 92.473a6.627 6.627 0 0 0 4.062-6.111c0-3.66-6.626-12.9-6.626-12.9s-1.5 9.238-1.5 12.9a6.627 6.627 0 0 0 4.064 6.111z" fill="#c8e2dd"/><path d="m73.19 92.473a6.627 6.627 0 0 0 4.063-6.111c0-3.66-6.626-12.9-6.626-12.9s-1.5 9.238-1.5 12.9a6.627 6.627 0 0 0 4.063 6.111z" fill="#e2f2ef"/><path d="m86.442 92.473a6.627 6.627 0 0 0 4.058-6.111c0-3.66-6.626-12.9-6.626-12.9s-1.5 9.238-1.5 12.9a6.627 6.627 0 0 0 4.068 6.111z" fill="#e2f2ef"/><path d="m117.25 38.813a14.9 14.9 0 0 0 -14.884-14.883h-7.033a1.75 1.75 0 0 0 0 3.5h7.033a11.4 11.4 0 0 1 10.921 8.195 12.14 12.14 0 0 0 -5.095-3.148 13.51 13.51 0 0 0 -9.479.354 1.75 1.75 0 0 0 1.36 3.225 9.993 9.993 0 0 1 7.021-.254c4.6 1.52 6.655 5.409 6.655 12.61 0 4.626-4.088 11.609-6.982 15.835-1.657-4.11-4.945-11.41-9.063-16.231a9.421 9.421 0 0 0 .545-2.767 9.869 9.869 0 0 0 -18-5.6 9.858 9.858 0 0 0 -16.25 0 9.868 9.868 0 0 0 -8.125-4.276 1.75 1.75 0 0 0 0 3.5 6.382 6.382 0 0 1 6.375 6.375c0 2.437-3.48 8.424-6.375 12.74-2.895-4.315-6.375-10.3-6.375-12.74a9.855 9.855 0 0 0 -15.034-8.4 13.2 13.2 0 0 0 -14.658-4.367 12.14 12.14 0 0 0 -5.095 3.148 11.4 11.4 0 0 1 10.922-8.199h55.866a1.75 1.75 0 0 0 0-3.5h-55.866a14.9 14.9 0 0 0 -14.884 14.883v7.771a1.75 1.75 0 0 0 .033.326c-.021.489-.033.988-.033 1.5 0 8.169 9.2 20.057 9.587 20.559a1.75 1.75 0 0 0 3.033-.5 82.314 82.314 0 0 1 6.652-14.1 1.75 1.75 0 0 0 -2.973-1.848 79.59 79.59 0 0 0 -5.816 11.727c-2.895-4.226-6.983-11.21-6.983-15.836 0-7.2 2.053-11.091 6.655-12.61a9.589 9.589 0 0 1 10.938 3.39 9.816 9.816 0 0 0 -2.093 6.057c0 4.908 7.588 15.628 8.453 16.834a1.749 1.749 0 0 0 2.844 0 82.735 82.735 0 0 0 6.703-11.083 82.735 82.735 0 0 0 6.7 11.078 1.749 1.749 0 0 0 2.844 0 82.735 82.735 0 0 0 6.706-11.078 82.735 82.735 0 0 0 6.7 11.078 1.749 1.749 0 0 0 2.844 0c.868-1.202 8.456-11.922 8.456-16.83a6.375 6.375 0 0 1 12.75 0 7.231 7.231 0 0 1 -.559 2.328 1.743 1.743 0 0 0 -.176.444 63.77 63.77 0 0 1 -5.635 9.96c-.838-1.254-1.938-2.958-2.992-4.764a1.751 1.751 0 1 0 -3.023 1.766c2.183 3.737 4.491 6.965 4.589 7.1a1.749 1.749 0 0 0 2.844 0 85.836 85.836 0 0 0 6.365-10.391c4.87 6.531 8.428 16.664 8.468 16.777a1.75 1.75 0 0 0 3.033.5c.392-.5 9.587-12.39 9.587-20.559 0-.513-.012-1.012-.033-1.5a1.75 1.75 0 0 0 .033-.326zm-77.625 19.175c-2.895-4.315-6.375-10.3-6.375-12.74a6.375 6.375 0 0 1 12.75 0c0 2.437-3.48 8.424-6.375 12.74zm32.5 0c-2.895-4.315-6.375-10.3-6.375-12.74a6.375 6.375 0 0 1 12.75 0c0 2.437-3.48 8.424-6.375 12.74z"/><path d="m87.5 27.43h.979a1.75 1.75 0 0 0 0-3.5h-.979a1.75 1.75 0 0 0 0 3.5z"/><path d="m53.75 100.57h-.625a1.75 1.75 0 0 0 0 3.5h.625a1.75 1.75 0 0 0 0-3.5z"/><path d="m99.863 66.817a1.75 1.75 0 0 0 -3.033.5 70.787 70.787 0 0 1 -3.94 8.908 1.75 1.75 0 1 0 3.086 1.652c1.241-2.319 2.256-4.6 2.973-6.334 2.306 3.439 5.3 8.713 5.3 12.236 0 7.32-2.782 9.178-5.206 9.978a7.6 7.6 0 0 1 -8.421-2.451 8.32 8.32 0 0 0 1.632-4.946c0-4.02-5.793-12.3-6.954-13.917a1.75 1.75 0 0 0 -2.844 0 68.656 68.656 0 0 0 -5.2 8.472 68.556 68.556 0 0 0 -5.2-8.471 1.813 1.813 0 0 0 -2.844 0 68.561 68.561 0 0 0 -5.212 8.472 68.561 68.561 0 0 0 -5.2-8.471 1.75 1.75 0 0 0 -2.844 0c-.061.085-1.5 2.1-3.058 4.645a1.75 1.75 0 1 0 2.986 1.824c.528-.863 1.047-1.67 1.5-2.353 2.351 3.558 4.871 8.034 4.871 9.8a4.876 4.876 0 1 1 -9.752 0c0-4.02-5.794-12.3-6.955-13.918a1.814 1.814 0 0 0 -2.844 0 70.233 70.233 0 0 0 -4.988 8.036c-3.78-5.279-6.516-13.07-6.546-13.16a1.75 1.75 0 0 0 -3.033-.5c-.322.413-7.887 10.193-7.887 16.965 0 .418.01.823.027 1.222a1.739 1.739 0 0 0 -.027.267v3.915a14.9 14.9 0 0 0 14.884 14.882h11.741a1.75 1.75 0 0 0 0-3.5h-11.741a11.36 11.36 0 0 1 -8.719-4.078 11.8 11.8 0 0 0 1.443.592 11.483 11.483 0 0 0 3.6.581 11.207 11.207 0 0 0 4.542-.956 1.751 1.751 0 0 0 -1.418-3.2 7.806 7.806 0 0 1 -5.621.252c-2.424-.8-5.206-2.657-5.206-9.978 0-3.522 3-8.795 5.3-12.234 1.4 3.4 3.953 8.855 7.1 12.607a7.78 7.78 0 0 0 -.411 2.207 8.366 8.366 0 0 0 15 5.1 8.345 8.345 0 0 0 13.252 0 8.359 8.359 0 0 0 6.626 3.272 1.75 1.75 0 0 0 0-3.5 4.882 4.882 0 0 1 -4.876-4.876c0-1.766 2.523-6.248 4.876-9.808 2.353 3.559 4.876 8.039 4.876 9.808a8.364 8.364 0 0 0 12.5 7.28 10.957 10.957 0 0 0 8.516 4.033 11.546 11.546 0 0 0 3.62-.592 11.8 11.8 0 0 0 1.443-.592 11.36 11.36 0 0 1 -8.719 4.078h-32.921a1.75 1.75 0 0 0 0 3.5h32.929a14.9 14.9 0 0 0 14.884-14.879v-3.916a1.74 1.74 0 0 0 -.027-.267c.017-.4.027-.8.027-1.222 0-6.771-7.564-16.552-7.887-16.965zm-55.742 24.421a4.882 4.882 0 0 1 -4.876-4.876 5.5 5.5 0 0 1 .427-1.764 1.743 1.743 0 0 0 .148-.372 50.557 50.557 0 0 1 4.3-7.672c2.354 3.56 4.88 8.046 4.88 9.808a4.882 4.882 0 0 1 -4.879 4.876zm34.879-4.876c0-1.767 2.524-6.248 4.877-9.809 2.353 3.56 4.876 8.04 4.876 9.809a4.876 4.876 0 0 1 -9.753 0z"/><path d="m17.759 42.721a18.048 18.048 0 0 0 -1.2 6.779 1.75 1.75 0 1 0 3.5 0 14.6 14.6 0 0 1 .941-5.467 1.75 1.75 0 1 0 -3.244-1.312z" fill="#fff"/><path d="m23.056 41.014a3 3 0 0 1 .3-.229 1.75 1.75 0 0 0 -1.739-3.036 5.55 5.55 0 0 0 -.823.594 1.75 1.75 0 1 0 2.26 2.672z" fill="#fff"/></svg>