<svg height="512" viewBox="0 0 256 256" width="512" xmlns="http://www.w3.org/2000/svg"><path d="m167.947 212.847a6.721 6.721 0 0 1 -3.718 2.687c-6.757 1.923-22.709 6.028-35.729 6.028-13.073 0-29.694-4.139-36.676-6.052a6.722 6.722 0 0 1 -3.765-2.676c-2.8 6.206-8.583 27.284-9.174 38.437a2.123 2.123 0 0 0 2.122 2.229h93.986a2.123 2.123 0 0 0 2.122-2.229c-.59-11.145-6.369-32.214-9.168-38.424z" fill="#5b5d60"/><path d="m245.875 176.188c0-11.165-4.72-17.609-7.675-20.549a128.425 128.425 0 0 0 -2.481-19.6c-4.019-21.739-19.449-30.919-19.449-30.919l5.037-3c-8.927-11.473-27.863-13.32-27.863-13.32a62.3 62.3 0 0 0 -12.691-7.441 22.47 22.47 0 0 1 -.59 13.453l-4.37-4.37a22.507 22.507 0 0 1 -12.016 18.571l-3.278-5.462s-9.831-5.462-13.109 5.462-.273 18.025-19.39 18.025-16.113-7.1-19.39-18.025-13.11-5.462-13.11-5.462l-3.278 5.462a22.507 22.507 0 0 1 -12.015-18.571l-4.37 4.37a22.473 22.473 0 0 1 -.6-13.428 61.758 61.758 0 0 0 -12.681 7.416s-18.936 1.847-27.863 13.323l5.037 3s-15.43 9.177-19.449 30.918a128.425 128.425 0 0 0 -2.481 19.6c-2.955 2.94-7.675 9.384-7.675 20.549l8.416-5.611a24.255 24.255 0 0 0 -.541 13.229l3.988-4.106c1.375 3.789 3.122 7.877 5.306 12.446a36.8 36.8 0 0 0 -6.551 26.195q.062.488.153.968a15.086 15.086 0 0 0 11.138 11.557l14.147 3.7a6.592 6.592 0 0 0 6.353-1.4 6.718 6.718 0 0 0 1.612-8.2c-5.988-11.45-3.179-19.724-1.455-23.074a4.656 4.656 0 0 1 2.833-2.349 16.247 16.247 0 0 1 10.646 1.01 5.167 5.167 0 0 0 7-6.337c-3.386-10.1-11.861-7.255-16.63-6.847a2.807 2.807 0 0 1 -2.991-3.465c2.676-10.782 1.533-23.048.119-26.84a2.774 2.774 0 0 1 1.31-3.427 66.773 66.773 0 0 0 15.417-10.908s.09 5.552 9.635 19.1a16.022 16.022 0 0 1 2.894 10.381c-.6 8.242-.819 24.2 4.335 39.042a6.7 6.7 0 0 0 4.571 4.252c6.982 1.913 23.6 6.052 36.676 6.052 13.02 0 28.972-4.105 35.729-6.028a6.7 6.7 0 0 0 4.5-4.234c5.169-14.857 4.948-30.834 4.35-39.084a16.028 16.028 0 0 1 2.894-10.381c9.545-13.551 9.635-19.1 9.635-19.1a66.773 66.773 0 0 0 15.417 10.908 2.774 2.774 0 0 1 1.31 3.427c-1.414 3.792-2.557 16.058.119 26.84a2.807 2.807 0 0 1 -2.991 3.465c-4.71-.4-13.032-3.186-16.5 6.473a5.377 5.377 0 0 0 .572 4.972 5.177 5.177 0 0 0 6.254 1.757c2.562-1.085 6.61-2.221 10.7-1.025a4.646 4.646 0 0 1 2.822 2.346c1.724 3.35 4.534 11.626-1.458 23.078a6.72 6.72 0 0 0 1.615 8.195 6.6 6.6 0 0 0 6.353 1.4l14.154-3.705a15.076 15.076 0 0 0 11.131-11.556q.091-.48.153-.968a36.8 36.8 0 0 0 -6.551-26.195c2.184-4.569 3.931-8.657 5.306-12.446l3.988 4.106a24.255 24.255 0 0 0 -.546-13.231z" fill="#8ebad6"/><path d="m182.348 72.963c-3.278-14.2-14.2-17.478-14.2-17.478 3.365-14.9-4.006-23.776-13.316-29.041-1.331-3.837-4.747-10.074-13.421-14.055l-1.1 5.35s-8.084-9.476-20.735-7.624l3.4 5.162s-15.348-2.4-24.087 5.251l5.126 4.448c-10.577 5.024-19.862 14.124-16.161 30.509 0 0-10.924 3.277-14.2 17.478h5.462s-7.648 9.837-3.279 21.849l4.37-4.37a22.507 22.507 0 0 0 12.016 18.571l3.278-5.462s9.831-5.462 13.109 5.462.273 18.025 19.39 18.025 16.113-7.1 19.39-18.025 13.109-5.462 13.109-5.462l3.278 5.462a22.507 22.507 0 0 0 12.016-18.571l4.37 4.37c4.369-12.017-3.277-21.849-3.277-21.849z" fill="#a7c3d8"/><path d="m196.455 20.018-2.155-1.437a.954.954 0 0 1 -.229-1.378c3.074-3.973 2.608-10.674 2.161-13.873a.956.956 0 0 0 -1.453-.683c-1.739 1.12-6.048 2.673-16.572 2.673-13.529 0-20.161 10.265-22.835 14.62a14.854 14.854 0 0 1 -2.219 2.778l-.019.018a22.158 22.158 0 0 1 1.7 3.708c5.91 3.342 11.035 8.142 13.131 15.013 13.649-.143 21.163-6.479 23.424-8.757a.961.961 0 0 0 -.113-1.445l-2.906-2.179a.964.964 0 0 1 .174-1.642c5.247-2.484 7.381-4.872 8.192-6.091a.957.957 0 0 0 -.281-1.325z" fill="#fc657e"/><path d="m104.006 24.976-5.127-4.448a17.8 17.8 0 0 1 2.181-1.62c-2.588-4.753-10.713-13.588-23.26-13.588-10.519 0-14.829-1.552-16.57-2.671a.957.957 0 0 0 -1.456.683c-.446 3.2-.911 9.9 2.162 13.871a.954.954 0 0 1 -.229 1.378l-2.157 1.437a.957.957 0 0 0 -.277 1.325c.811 1.219 2.945 3.607 8.193 6.091a.965.965 0 0 1 .173 1.642l-2.906 2.179a.96.96 0 0 0 -.112 1.445c2.262 2.279 9.776 8.615 23.425 8.757 2.421-7.949 8.901-13.125 15.96-16.481z" fill="#fc657e"/><path d="m194.777 2.647c-1.739 1.12-6.048 2.673-16.572 2.673-13.529 0-20.161 10.265-22.835 14.62a14.854 14.854 0 0 1 -2.219 2.778l-.019.018a22.158 22.158 0 0 1 1.7 3.708 34.144 34.144 0 0 1 6.732 4.91c1.9-7.64 5.944-14.632 14.207-16.285 11.068-2.213 17.29-4.965 20.778-7.455a33.594 33.594 0 0 0 -.319-4.28.956.956 0 0 0 -1.453-.687z" fill="#c7d7e5"/><path d="m94.436 31.353a36.757 36.757 0 0 1 9.57-6.377l-5.127-4.448a17.8 17.8 0 0 1 2.181-1.62c-2.588-4.753-10.713-13.588-23.26-13.588-10.519 0-14.829-1.552-16.57-2.671a.957.957 0 0 0 -1.456.683 33.6 33.6 0 0 0 -.318 4.278c3.488 2.49 9.71 5.242 20.778 7.455 8.259 1.653 12.301 8.646 14.202 16.288z" fill="#c7d7e5"/><path d="m139.874 67.24c0 3.935-5.316 10.449-11.874 10.449s-11.874-6.514-11.874-10.449 5.316-6.649 11.874-6.649 11.874 2.714 11.874 6.649z" fill="#5b5d60"/><path d="m139.815 66.546a4.194 4.194 0 0 1 .059.694c0 3.935-5.316 10.449-11.874 10.449s-11.874-6.514-11.874-10.449a4.194 4.194 0 0 1 .059-.694c-19.285 2.268-19.508 16.032-16.064 20.336 3.175 3.97 13.215 11.183 22.365 7.117 2.887-1.283 4.567-4.421 5.514-8.134.947 3.713 2.627 6.851 5.514 8.134 9.15 4.066 19.19-3.147 22.365-7.117 3.444-4.304 3.221-18.068-16.064-20.336z" fill="#c7d7e5"/><path d="m133.514 94c-2.887-1.283-4.567-4.421-5.514-8.134-.947 3.713-2.627 6.851-5.514 8.134-4.79 2.128-9.822 1.164-13.987-.806a25.016 25.016 0 0 0 -4.827 9.519c1.973.792 3.83 2.608 4.938 6.3 3.277 10.924.273 18.025 19.39 18.025s16.113-7.1 19.39-18.025c1.108-3.693 2.966-5.509 4.938-6.3a25.03 25.03 0 0 0 -4.827-9.519c-4.165 1.969-9.201 2.933-13.987.806z" fill="#fc657e"/><path d="m154.75 47.31a67.387 67.387 0 0 1 -12.5 6.139 7.642 7.642 0 1 0 12.5-6.139z" fill="#edf4fc"/><path d="m101.25 47.31a67.387 67.387 0 0 0 12.5 6.139 7.642 7.642 0 1 1 -12.5-6.139z" fill="#edf4fc"/><g fill="#c7d7e5"><path d="m128 117.036c-10.239 0-15.5-1.6-18.482-4.479 1.97 8.889 1.522 14.481 18.482 14.481s16.512-5.592 18.482-14.481c-2.982 2.88-8.243 4.479-18.482 4.479z"/><path d="m116.958 108.447 3.675-13.779a16.737 16.737 0 0 1 -10.853-.918l5.277 14.775a1 1 0 0 0 1.901-.078z"/><path d="m135.367 94.668 3.675 13.779a1 1 0 0 0 1.9.078l5.278-14.775a16.737 16.737 0 0 1 -10.853.918z"/></g><path d="m22.372 90.6h-2.266v-2.27a3.071 3.071 0 0 0 -6.142 0v2.27h-2.264a3.071 3.071 0 0 0 0 6.142h2.265v2.258a3.071 3.071 0 0 0 6.142 0v-2.262h2.266a3.071 3.071 0 1 0 0-6.142z" fill="#f5c84c"/><path d="m211.857 59.366a10.8 10.8 0 0 1 -8.654-8.478.2.2 0 0 0 -.384 0 10.794 10.794 0 0 1 -8.654 8.478.19.19 0 0 0 0 .376 10.8 10.8 0 0 1 8.654 8.479.2.2 0 0 0 .384 0 10.8 10.8 0 0 1 8.654-8.479.19.19 0 0 0 0-.376z" fill="#ef4460"/><circle cx="44.019" cy="69.285" fill="#87d147" r="3.285"/><circle cx="212.019" cy="31.285" fill="#70d6f9" r="3.285"/><circle cx="238.019" cy="107.285" fill="#f5c84c" r="3.285"/><path d="m212.375 236.408a2.5 2.5 0 0 1 -2.229-3.629c6.488-12.832 3.516-22.529 3.485-22.626a2.5 2.5 0 0 1 4.752-1.555c.155.468 3.7 11.647-3.776 26.437a2.5 2.5 0 0 1 -2.232 1.373z"/><path d="m223.062 232.959a2.5 2.5 0 0 1 -2.283-3.517c3.969-8.919 3.639-16.155 3.089-19.675a2.5 2.5 0 1 1 4.94-.772c.776 4.964.805 12.894-3.46 22.481a2.5 2.5 0 0 1 -2.286 1.483z"/><path d="m43.625 236.408a2.5 2.5 0 0 1 -2.232-1.373c-7.478-14.79-3.931-25.969-3.776-26.437a2.5 2.5 0 0 1 4.751 1.557c-.051.162-2.979 9.836 3.486 22.624a2.5 2.5 0 0 1 -2.229 3.629z"/><path d="m32.938 232.959a2.5 2.5 0 0 1 -2.286-1.483c-4.265-9.587-4.236-17.517-3.46-22.481a2.5 2.5 0 0 1 4.94.772c-.55 3.52-.88 10.756 3.089 19.675a2.5 2.5 0 0 1 -2.283 3.517z"/><path d="m128.542 233.854c-18.575 0-43.029-7.377-44.062-7.691a2.5 2.5 0 0 1 1.456-4.784c.246.075 24.782 7.475 42.606 7.475 17.806 0 41.257-7.391 41.492-7.465a2.5 2.5 0 1 1 1.515 4.764c-.988.315-24.416 7.701-43.007 7.701z"/><path d="m70.389 145.231a2.5 2.5 0 0 1 -2.5-2.5 35.293 35.293 0 0 1 3.379-14.294 2.5 2.5 0 0 1 4.466 2.248 30.633 30.633 0 0 0 -2.845 12.046 2.5 2.5 0 0 1 -2.5 2.5z"/><path d="m185.611 145.231a2.5 2.5 0 0 1 -2.5-2.5 30.633 30.633 0 0 0 -2.845-12.046 2.5 2.5 0 0 1 4.466-2.248 35.293 35.293 0 0 1 3.379 14.294 2.5 2.5 0 0 1 -2.5 2.5z"/><path d="m128 88.026a2.5 2.5 0 0 1 -2.5-2.5v-6.554a2.5 2.5 0 1 1 5 0v6.554a2.5 2.5 0 0 1 -2.5 2.5z"/><path d="m137.866 56.8a7.522 7.522 0 0 1 -5.942-2.493c-2.619-3.021-2.067-7.506-2-8.007a2.5 2.5 0 0 1 4.951.7c-.092.7-.136 2.941.829 4.042a2.575 2.575 0 0 0 2.157.761c4.223 0 13.452-5.1 18.277-8.32a2.5 2.5 0 0 1 2.773 4.161c-1.401.934-13.939 9.156-21.045 9.156z"/><path d="m118.134 56.8c-7.106 0-19.644-8.222-21.05-9.159a2.5 2.5 0 0 1 2.773-4.161c3.474 2.314 13.529 8.32 18.277 8.32a2.567 2.567 0 0 0 2.164-.77c1-1.149.9-3.466.823-4.023a2.5 2.5 0 1 1 4.95-.707c.072.5.624 4.986-2 8.007a7.522 7.522 0 0 1 -5.937 2.493z"/><path d="m110.719 159.946a71.06 71.06 0 0 1 -18.325-2.881 2.5 2.5 0 1 1 1.337-4.817c13.062 3.627 23.39 3.553 28.335-.206 2.647-2.011 3.934-5.112 3.934-9.48v-14.562a2.5 2.5 0 0 1 5 0v14.562c0 5.953-1.988 10.481-5.908 13.461-3.784 2.877-8.914 3.923-14.373 3.923z"/><path d="m146.281 159.946c-5.46 0-10.589-1.047-14.373-3.923-3.92-2.98-5.908-7.508-5.908-13.461v-14.562a2.5 2.5 0 0 1 5 0v14.562c0 4.368 1.287 7.469 3.934 9.48 4.946 3.76 15.274 3.834 28.335.206a2.5 2.5 0 1 1 1.337 4.817 71.1 71.1 0 0 1 -18.325 2.881z"/><path d="m115.687 177.989q-1.47 0-3.071-.115a17.264 17.264 0 0 1 -14.191-9.613 2.5 2.5 0 0 1 4.491-2.2 12.241 12.241 0 0 0 10.062 6.824c5.488.4 9.6-.392 11.568-2.226a4.816 4.816 0 0 0 1.454-3.739v-17.281a2.5 2.5 0 0 1 5 0v17.281a9.681 9.681 0 0 1 -3.049 7.4c-2.621 2.44-6.739 3.669-12.264 3.669z"/><path d="m141.313 177.989c-5.525 0-9.643-1.229-12.264-3.668a9.681 9.681 0 0 1 -3.049-7.4v-17.282a2.5 2.5 0 0 1 5 0v17.281a4.816 4.816 0 0 0 1.454 3.74c1.971 1.834 6.082 2.623 11.568 2.226a12.241 12.241 0 0 0 10.062-6.824 2.5 2.5 0 0 1 4.491 2.2 17.264 17.264 0 0 1 -14.191 9.613q-1.6.115-3.071.114z"/><path d="m118.586 194.479q-1.154 0-2.406-.091a13.915 13.915 0 0 1 -11.439-7.747 2.5 2.5 0 1 1 4.49-2.2 8.9 8.9 0 0 0 7.311 4.96c4.021.293 7.128-.28 8.515-1.57a3.084 3.084 0 0 0 .943-2.477v-13.354a2.5 2.5 0 0 1 5 0v13.359a8.135 8.135 0 0 1 -2.538 6.138c-2.135 1.981-5.451 2.982-9.876 2.982z"/><path d="m138.414 194.479c-4.426 0-7.741-1-9.876-2.987a8.135 8.135 0 0 1 -2.538-6.138v-13.354a2.5 2.5 0 0 1 5 0v13.359a3.084 3.084 0 0 0 .943 2.477c1.387 1.289 4.489 1.861 8.516 1.57a8.9 8.9 0 0 0 7.31-4.96 2.5 2.5 0 1 1 4.49 2.2 13.915 13.915 0 0 1 -11.439 7.747q-1.252.087-2.406.086z"/><path d="m121.358 209.746q-.853 0-1.776-.067a10.717 10.717 0 0 1 -8.812-5.967 2.5 2.5 0 1 1 4.49-2.2 5.7 5.7 0 0 0 4.683 3.178c2.663.2 4.758-.159 5.6-.944a1.534 1.534 0 0 0 .456-1.269v-9.616a2.5 2.5 0 1 1 5 0v9.616a6.538 6.538 0 0 1 -2.05 4.93c-1.67 1.555-4.219 2.339-7.591 2.339z"/><path d="m135.642 209.746c-3.372 0-5.921-.784-7.592-2.338a6.538 6.538 0 0 1 -2.05-4.93v-9.616a2.5 2.5 0 1 1 5 0v9.616a1.534 1.534 0 0 0 .456 1.269c.843.785 2.935 1.14 5.6.944a5.7 5.7 0 0 0 4.683-3.178 2.5 2.5 0 1 1 4.49 2.2 10.717 10.717 0 0 1 -8.812 5.967q-.917.065-1.775.066z"/><path d="m174.993 256h-93.986a4.621 4.621 0 0 1 -4.618-4.86c.63-11.9 6.629-33.207 9.39-39.333a2.5 2.5 0 0 1 4.339-.39 4.236 4.236 0 0 0 2.366 1.682c6.546 1.793 23.157 5.963 36.016 5.963 12.81 0 28.775-4.148 35.044-5.933a4.227 4.227 0 0 0 2.336-1.688 2.5 2.5 0 0 1 4.347.379c2.759 6.123 8.754 27.421 9.384 39.319a4.621 4.621 0 0 1 -4.618 4.861zm-93.588-5h93.195c-.6-9.511-4.826-25.814-7.672-33.9a9.228 9.228 0 0 1 -2.01.841c-6.472 1.841-22.974 6.123-36.413 6.123-13.466 0-30.6-4.294-37.336-6.141a9.17 9.17 0 0 1 -2.076-.852c-2.853 8.083-7.093 24.408-7.688 33.929z"/><path d="m207.812 237.341a8.757 8.757 0 0 1 -3.558-.734 9.4 9.4 0 0 1 -2.441-1.566 9.154 9.154 0 0 1 -2.174-11.227c5.524-10.556 2.854-18.046 1.45-20.776a2.13 2.13 0 0 0 -1.3-1.089 13.757 13.757 0 0 0 -9.019.927 7.669 7.669 0 0 1 -9.258-2.6 7.879 7.879 0 0 1 -.9-7.279c3.679-10.246 12.4-9.023 17.076-8.366.714.1 1.384.2 1.99.247a.334.334 0 0 0 .294-.113.273.273 0 0 0 .058-.259c-2.727-10.984-1.751-23.715-.035-28.316a.275.275 0 0 0 -.121-.335 71.174 71.174 0 0 1 -12.874-8.532c-1.209 3.3-3.729 8.5-8.975 15.951a13.553 13.553 0 0 0 -2.445 8.761c.609 8.408.838 24.8-4.482 40.086a9.21 9.21 0 0 1 -6.181 5.817c-6.472 1.842-22.974 6.124-36.413 6.124-13.466 0-30.6-4.294-37.336-6.141a9.2 9.2 0 0 1 -6.273-5.843c-5.305-15.28-5.075-31.647-4.467-40.043a13.549 13.549 0 0 0 -2.445-8.76c-5.246-7.449-7.766-12.647-8.975-15.952a71.174 71.174 0 0 1 -12.879 8.535.275.275 0 0 0 -.121.335c1.716 4.6 2.692 17.332-.035 28.316a.273.273 0 0 0 .058.259.335.335 0 0 0 .294.113c.606-.052 1.277-.147 1.99-.247 4.765-.669 13.636-1.913 17.224 8.791a7.668 7.668 0 0 1 -10.339 9.435 13.762 13.762 0 0 0 -8.974-.914 2.141 2.141 0 0 0 -1.311 1.092c-1.4 2.73-4.073 10.218 1.448 20.772a9.168 9.168 0 0 1 -2.2 11.256 9.366 9.366 0 0 1 -2.414 1.542 9.476 9.476 0 0 1 -6.2.382l-14.146-3.7a17.62 17.62 0 0 1 -12.961-13.509c-.071-.37-.129-.745-.177-1.121a39.688 39.688 0 0 1 6.135-26.776c-1.27-2.708-2.378-5.237-3.346-7.634l-1.263 1.3a2.5 2.5 0 0 1 -4.237-1.216 29.448 29.448 0 0 1 -.646-8.334l-3.4 2.265a2.5 2.5 0 0 1 -3.887-2.08c0-11.273 4.545-18.163 7.709-21.592a138.872 138.872 0 0 1 2.488-19.01 50.687 50.687 0 0 1 17.382-30.252l-1.78-1.06a2.5 2.5 0 0 1 -.7-3.684c8.572-11.019 25.18-13.718 28.88-14.187a64.632 64.632 0 0 1 12.643-7.3 2.5 2.5 0 0 1 3.419 2.9 20.336 20.336 0 0 0 -.483 7.93l1.26-1.26a2.5 2.5 0 0 1 4.268 1.768 19.741 19.741 0 0 0 8.67 15.122l1.979-3.3a2.52 2.52 0 0 1 .931-.9c.219-.121 5.433-2.961 10.355-.962 3.019 1.228 5.16 3.883 6.362 7.892.652 2.173 1.067 4.2 1.432 5.981 1.486 7.258 2.1 10.262 15.564 10.262s14.078-3 15.564-10.262c.365-1.785.78-3.808 1.432-5.981 1.2-4.009 3.343-6.664 6.362-7.892 4.924-2 10.136.84 10.355.962a2.52 2.52 0 0 1 .931.9l1.979 3.3a19.742 19.742 0 0 0 8.67-15.133 2.5 2.5 0 0 1 4.268-1.757l1.26 1.26a20.343 20.343 0 0 0 -.489-7.953 2.5 2.5 0 0 1 3.424-2.912 65.1 65.1 0 0 1 12.644 7.335c3.7.474 20.306 3.173 28.878 14.192a2.5 2.5 0 0 1 -.695 3.684l-1.78 1.06a50.687 50.687 0 0 1 17.373 30.255 138.872 138.872 0 0 1 2.488 19.01c3.164 3.429 7.709 10.319 7.709 21.592a2.5 2.5 0 0 1 -3.887 2.08l-3.4-2.265a29.448 29.448 0 0 1 -.643 8.331 2.5 2.5 0 0 1 -4.237 1.216l-1.263-1.3c-.968 2.4-2.076 4.926-3.346 7.634a39.684 39.684 0 0 1 6.139 26.772q-.071.563-.177 1.123a17.613 17.613 0 0 1 -12.954 13.506l-14.154 3.705a10.459 10.459 0 0 1 -2.639.346zm-185.83-60.141a2.5 2.5 0 0 1 2.351 1.647c1.339 3.691 3.044 7.688 5.211 12.221a2.5 2.5 0 0 1 -.315 2.655 34.667 34.667 0 0 0 -6.01 24.305c.034.273.076.544.128.813a12.6 12.6 0 0 0 9.316 9.607l14.146 3.7a4.479 4.479 0 0 0 2.916-.119 4.4 4.4 0 0 0 1.147-.737 4.256 4.256 0 0 0 1.056-5.17c-6.6-12.628-3.224-21.953-1.464-25.376a7.192 7.192 0 0 1 4.358-3.605 18.659 18.659 0 0 1 12.315 1.106 2.732 2.732 0 0 0 2.072.068 2.687 2.687 0 0 0 1.584-3.307c-2.108-6.292-6.036-6.234-11.787-5.428-.81.114-1.57.219-2.258.278a5.306 5.306 0 0 1 -5.631-6.558c2.535-10.214 1.479-21.942.2-25.365a5.275 5.275 0 0 1 2.5-6.519 64.457 64.457 0 0 0 14.843-10.5 2.5 2.5 0 0 1 4.227 1.767s.453 5.316 9.178 17.7a18.568 18.568 0 0 1 3.345 12c-.581 8.013-.808 23.609 4.2 38.042a4.2 4.2 0 0 0 2.869 2.661c6.546 1.793 23.157 5.963 36.016 5.963 12.81 0 28.775-4.148 35.044-5.933a4.2 4.2 0 0 0 2.827-2.65c5.025-14.443 4.8-30.059 4.217-38.083a18.573 18.573 0 0 1 3.345-12c8.734-12.4 9.177-17.715 9.18-17.768a2.455 2.455 0 0 1 1.535-2.234 2.51 2.51 0 0 1 2.69.531 64.442 64.442 0 0 0 14.844 10.5 5.277 5.277 0 0 1 2.5 6.52c-1.277 3.422-2.333 15.15.2 25.364a5.306 5.306 0 0 1 -5.631 6.558c-.687-.059-1.448-.164-2.257-.278-5.661-.8-9.532-.868-11.676 5.1a2.9 2.9 0 0 0 .248 2.668 2.692 2.692 0 0 0 3.25.914 18.663 18.663 0 0 1 12.375-1.121 7.189 7.189 0 0 1 4.344 3.6c1.76 3.424 5.142 12.751-1.467 25.381a4.242 4.242 0 0 0 1.027 5.138 4.107 4.107 0 0 0 4.094.883l14.155-3.7a12.591 12.591 0 0 0 9.308-9.605q.077-.4.128-.809a34.664 34.664 0 0 0 -6.015-24.314 2.512 2.512 0 0 1 -.31-2.65c2.167-4.533 3.872-8.53 5.211-12.221a2.5 2.5 0 0 1 4.144-.889l.344.354a19.92 19.92 0 0 0 -1.049-6.905 2.5 2.5 0 0 1 3.749-2.9l4.179 2.786a24.231 24.231 0 0 0 -6.588-13.872 2.5 2.5 0 0 1 -.736-1.7 128.69 128.69 0 0 0 -2.44-19.213c-3.769-20.391-18.124-29.141-18.269-29.227a2.5 2.5 0 0 1 0-4.3l2.437-1.45c-8.721-8.6-24.064-10.217-24.23-10.233a2.5 2.5 0 0 1 -1.265-.5 60.279 60.279 0 0 0 -7.966-5.1 24.53 24.53 0 0 1 -1.456 9.972 2.5 2.5 0 0 1 -4.117.913l-.924-.923a25 25 0 0 1 -12.5 15.552 2.5 2.5 0 0 1 -3.342-.909l-2.889-4.817c-1.06-.453-3.481-1.281-5.521-.439-1.538.634-2.694 2.212-3.437 4.688-.588 1.959-.961 3.784-1.323 5.549-1.81 8.84-3.767 14.258-20.462 14.258s-18.652-5.418-20.462-14.258c-.362-1.765-.735-3.59-1.323-5.549-.746-2.486-1.909-4.066-3.456-4.7-2.013-.817-4.444.005-5.5.453l-2.891 4.819a2.5 2.5 0 0 1 -3.342.909 25 25 0 0 1 -12.5-15.552l-.924.923a2.5 2.5 0 0 1 -4.117-.913 24.531 24.531 0 0 1 -1.456-9.959 59.463 59.463 0 0 0 -7.966 5.085 2.493 2.493 0 0 1 -1.267.5c-.164.016-15.507 1.636-24.228 10.233l2.437 1.45a2.5 2.5 0 0 1 0 4.3c-.14.084-14.521 8.948-18.269 29.227a128.69 128.69 0 0 0 -2.44 19.213 2.5 2.5 0 0 1 -.736 1.7 24.231 24.231 0 0 0 -6.588 13.872l4.179-2.786a2.5 2.5 0 0 1 3.749 2.9 19.92 19.92 0 0 0 -1.058 6.918l.344-.354a2.5 2.5 0 0 1 1.796-.766z"/><path d="m128 129.538c-16.694 0-18.651-5.418-20.462-14.258-.361-1.765-.735-3.59-1.323-5.549-.743-2.476-1.9-4.054-3.437-4.688-2.036-.839-4.455-.016-5.521.44l-2.89 4.816a2.5 2.5 0 0 1 -3.341.909 25 25 0 0 1 -12.5-15.552l-.924.923a2.5 2.5 0 0 1 -4.117-.913 25.814 25.814 0 0 1 1.252-20.2h-1.085a2.5 2.5 0 0 1 -2.436-3.066c2.689-11.651 10.1-16.629 13.79-18.435-2.14-12.633 2.87-22.745 14.594-29.5l-2.36-2.047a2.5 2.5 0 0 1 -.007-3.77c6.226-5.449 15.206-6.307 20.861-6.226l-.613-.931a2.5 2.5 0 0 1 1.727-3.848 25.819 25.819 0 0 1 19.533 5.308l.219-1.065a2.5 2.5 0 0 1 3.491-1.767c8.988 4.124 12.826 10.6 14.41 14.615 11.373 6.756 16.228 16.817 14.133 29.234 3.69 1.806 11.1 6.784 13.79 18.435a2.5 2.5 0 0 1 -2.436 3.062h-1.088a25.814 25.814 0 0 1 1.252 20.2 2.5 2.5 0 0 1 -4.117.913l-.924-.923a25 25 0 0 1 -12.5 15.552 2.5 2.5 0 0 1 -3.341-.909l-2.89-4.816c-1.06-.454-3.483-1.28-5.521-.44-1.538.634-2.694 2.212-3.437 4.688-.588 1.959-.962 3.784-1.323 5.549-1.808 8.841-3.765 14.259-20.459 14.259zm-27.15-29.846a10 10 0 0 1 3.792.712c3.019 1.227 5.16 3.882 6.362 7.891.652 2.173 1.067 4.2 1.433 5.981 1.486 7.258 2.1 10.262 15.563 10.262s14.077-3 15.563-10.262c.366-1.785.781-3.808 1.433-5.981 1.2-4.009 3.343-6.664 6.362-7.891 4.924-2 10.136.84 10.356.962a2.5 2.5 0 0 1 .929.9l1.98 3.3a19.742 19.742 0 0 0 8.67-15.133 2.5 2.5 0 0 1 4.268-1.757l1.258 1.259a22.369 22.369 0 0 0 -3.907-15.435 2.5 2.5 0 0 1 1.974-4.035h2.135c-3.538-9.95-11.25-12.476-11.607-12.588a2.513 2.513 0 0 1 -1.706-2.941c2.586-11.455-1.488-20.308-12.109-26.313a2.506 2.506 0 0 1 -1.132-1.358 20.946 20.946 0 0 0 -9.281-11.113l-.433 2.093a2.5 2.5 0 0 1 -4.35 1.118 22.087 22.087 0 0 0 -14.33-6.95l.982 1.492a2.5 2.5 0 0 1 -2.474 3.845c-.126-.02-11.741-1.732-19.684 2.956l2.747 2.384a2.5 2.5 0 0 1 -.565 4.146c-12.609 5.993-17.579 15.312-14.787 27.698a2.5 2.5 0 0 1 -1.72 2.945c-.344.108-8.055 2.634-11.593 12.584h2.135a2.5 2.5 0 0 1 1.974 4.037 22.1 22.1 0 0 0 -3.912 15.44l1.263-1.264a2.5 2.5 0 0 1 4.268 1.768 19.741 19.741 0 0 0 8.67 15.122l1.98-3.3a2.5 2.5 0 0 1 .929-.9 14.88 14.88 0 0 1 6.564-1.674z"/><path d="m167.961 43.957a2.5 2.5 0 0 1 -2.391-1.77c-1.663-5.451-5.691-10.015-11.971-13.566a2.506 2.506 0 0 1 -1.132-1.358 19.521 19.521 0 0 0 -1.505-3.286 2.5 2.5 0 0 1 .4-3.008 12.51 12.51 0 0 0 1.874-2.338c2.4-3.91 9.711-15.811 24.966-15.811 10.545 0 14.156-1.591 15.219-2.275a3.456 3.456 0 0 1 5.282 2.44c.492 3.524.849 9.779-1.745 14.366l.88.587a3.462 3.462 0 0 1 .971 4.79c-.988 1.484-2.982 3.611-6.977 5.826l.935.7a3.46 3.46 0 0 1 .388 5.206c-2.783 2.805-10.808 9.345-25.171 9.5zm-11.1-19.225c6.311 3.748 10.626 8.5 12.854 14.168 9.709-.527 15.779-4.43 18.573-6.757l-1.422-1.067a3.465 3.465 0 0 1 .6-5.9 22.176 22.176 0 0 0 6.172-4.026l-.73-.487a3.455 3.455 0 0 1 -.82-4.988c1.986-2.567 2.1-6.885 1.887-9.857-3.442 1.331-8.73 2-15.774 2-11.167 0-17.165 7.663-20.705 13.428a16.843 16.843 0 0 1 -1.341 1.877q.388.802.706 1.609z"/><path d="m88.041 43.957h-.026c-14.362-.15-22.389-6.69-25.174-9.495a3.459 3.459 0 0 1 .387-5.206l.936-.7c-4-2.215-5.989-4.342-6.977-5.825a3.463 3.463 0 0 1 .972-4.791l.88-.587c-2.592-4.588-2.239-10.841-1.746-14.367a3.456 3.456 0 0 1 5.285-2.439c1.062.683 4.674 2.273 15.222 2.273 13.726 0 22.656 9.742 25.461 14.893a2.5 2.5 0 0 1 -.411 2.946l2.8 2.429a2.5 2.5 0 0 1 -.565 4.146c-7.826 3.721-12.754 8.752-14.647 14.953a2.5 2.5 0 0 1 -2.397 1.77zm-20.329-11.814c2.794 2.327 8.867 6.23 18.574 6.757 2.286-5.814 6.751-10.654 13.314-14.437l-2.36-2.047a2.5 2.5 0 0 1 -.007-3.77q.225-.2.458-.388c-3.15-4.377-10.017-10.438-19.891-10.438-7.044 0-12.332-.673-15.774-2-.212 2.971-.1 7.29 1.887 9.856a3.454 3.454 0 0 1 -.819 4.987l-.731.488a22.17 22.17 0 0 0 6.173 4.026 3.465 3.465 0 0 1 .6 5.9z"/><path d="m161.561 33.853a2.5 2.5 0 0 1 -1.722-.687 31.614 31.614 0 0 0 -6.24-4.545 2.506 2.506 0 0 1 -1.132-1.358 19.6 19.6 0 0 0 -1.505-3.286 2.5 2.5 0 0 1 .4-3.008 12.51 12.51 0 0 0 1.874-2.338c2.4-3.91 9.711-15.811 24.966-15.811 10.544 0 14.155-1.591 15.219-2.275a3.456 3.456 0 0 1 5.282 2.44 36.067 36.067 0 0 1 .343 4.6 2.5 2.5 0 0 1 -1.046 2.06c-4.55 3.249-11.865 5.9-21.741 7.872-6.059 1.212-10.188 6.069-12.271 14.437a2.5 2.5 0 0 1 -2.149 1.883 2.628 2.628 0 0 1 -.278.016zm-4.7-9.121a39.2 39.2 0 0 1 3.406 2.268c2.9-8.046 8.032-12.993 15.014-14.389 10.087-2.011 15.676-4.434 18.726-6.311-.009-.163-.019-.323-.03-.479-3.442 1.33-8.729 2-15.772 2-11.167 0-17.165 7.663-20.705 13.428a16.843 16.843 0 0 1 -1.341 1.877c.256.532.49 1.074.702 1.606z"/><path d="m94.437 33.853a2.5 2.5 0 0 1 -2.426-1.9c-2.084-8.37-6.213-13.228-12.272-14.44-9.876-1.971-17.191-4.619-21.739-7.868a2.5 2.5 0 0 1 -1.047-2.056 36.373 36.373 0 0 1 .342-4.6 3.456 3.456 0 0 1 5.283-2.442c1.062.683 4.674 2.273 15.222 2.273 13.726 0 22.656 9.742 25.461 14.893a2.5 2.5 0 0 1 -.411 2.946l2.8 2.429a2.5 2.5 0 0 1 -.565 4.146 34.231 34.231 0 0 0 -8.921 5.931 2.5 2.5 0 0 1 -1.727.688zm-32.444-27.553c3.051 1.881 8.64 4.3 18.726 6.318 6.981 1.392 12.12 6.339 15.014 14.382a39.773 39.773 0 0 1 3.867-2.535l-2.36-2.049a2.5 2.5 0 0 1 -.007-3.77q.225-.2.458-.388c-3.15-4.377-10.017-10.438-19.891-10.438-7.043 0-12.33-.672-15.772-2-.016.154-.028.313-.035.48z"/><path d="m128 80.189c-8.2 0-14.374-7.855-14.374-12.949 0-5.3 6.045-9.149 14.374-9.149s14.374 3.847 14.374 9.149c0 5.094-6.174 12.949-14.374 12.949zm0-17.1c-5.607 0-9.374 2.145-9.374 4.149 0 2.686 4.244 7.949 9.374 7.949s9.374-5.263 9.374-7.949c0-2.002-3.767-4.147-9.374-4.147z"/><path d="m139.209 97.691a16.373 16.373 0 0 1 -6.71-1.408 10.421 10.421 0 0 1 -4.5-3.975 10.421 10.421 0 0 1 -4.5 3.975c-10.522 4.675-21.8-3.426-25.333-7.839-2.033-2.542-3.255-7.632-1.134-12.8 1.508-3.673 5.963-10.061 18.859-11.579a2.5 2.5 0 0 1 2.759 2.888 1.725 1.725 0 0 0 -.026.289c0 2.686 4.244 7.949 9.374 7.949s9.374-5.263 9.374-7.949a1.725 1.725 0 0 0 -.026-.289 2.5 2.5 0 0 1 2.759-2.888c12.9 1.517 17.351 7.906 18.859 11.579 2.121 5.17.9 10.26-1.134 12.8-2.781 3.478-10.378 9.246-18.621 9.247zm-11.209-14.326a2.5 2.5 0 0 1 2.422 1.882c.886 3.474 2.268 5.649 4.108 6.467 8.038 3.573 17.031-3.435 19.4-6.393.99-1.238 1.772-4.469.413-7.78-1.668-4.064-5.99-6.9-12.291-8.122-1.372 4.886-6.95 10.77-14.049 10.77s-12.677-5.884-14.049-10.77c-6.3 1.222-10.623 4.058-12.291 8.122-1.359 3.311-.577 6.542.413 7.78 2.366 2.957 11.358 9.968 19.4 6.393 1.839-.818 3.221-2.993 4.107-6.467a2.5 2.5 0 0 1 2.417-1.882z"/><path d="m128 129.538c-16.694 0-18.651-5.418-20.462-14.258-.361-1.765-.735-3.59-1.323-5.549-.748-2.493-1.917-4.073-3.474-4.7a2.5 2.5 0 0 1 -1.49-2.946 27.356 27.356 0 0 1 5.307-10.47 2.5 2.5 0 0 1 3.009-.684c3.02 1.428 7.536 2.722 11.9.781 1.84-.818 3.222-2.993 4.108-6.467a2.5 2.5 0 0 1 4.844 0c.886 3.474 2.268 5.649 4.108 6.467 4.367 1.941 8.883.647 11.9-.781a2.5 2.5 0 0 1 3.009.684 27.371 27.371 0 0 1 5.307 10.47 2.5 2.5 0 0 1 -1.49 2.946c-1.557.625-2.726 2.2-3.474 4.7-.588 1.959-.962 3.784-1.323 5.549-1.805 8.84-3.762 14.258-20.456 14.258zm-21.356-28.016a12.53 12.53 0 0 1 4.356 6.778c.652 2.173 1.067 4.2 1.433 5.981 1.486 7.258 2.1 10.262 15.563 10.262s14.077-3 15.563-10.262c.366-1.785.781-3.808 1.433-5.981a12.53 12.53 0 0 1 4.36-6.773 22.307 22.307 0 0 0 -2.678-5.261c-5.022 1.915-9.887 1.929-14.179.022a10.421 10.421 0 0 1 -4.5-3.975 10.421 10.421 0 0 1 -4.5 3.975c-4.29 1.906-9.157 1.893-14.179-.022a22.287 22.287 0 0 0 -2.672 5.256z"/><path d="m149.882 63.354a10.1 10.1 0 0 1 -10.133-9.827 2.5 2.5 0 0 1 1.724-2.455 65.779 65.779 0 0 0 11.981-5.9 2.5 2.5 0 0 1 2.888.211 10.147 10.147 0 0 1 -6.46 17.972zm-4.794-8.277a5.147 5.147 0 1 0 9.175-4.573 71.715 71.715 0 0 1 -9.175 4.573z"/><path d="m106.118 63.354a10.147 10.147 0 0 1 -6.46-17.972 2.5 2.5 0 0 1 2.888-.211 65.779 65.779 0 0 0 11.981 5.9 2.5 2.5 0 0 1 1.724 2.455 10.1 10.1 0 0 1 -10.133 9.828zm-4.381-12.854a5.147 5.147 0 1 0 9.175 4.573 71.715 71.715 0 0 1 -9.175-4.573z"/><path d="m128 129.538c-16.7 0-18.653-5.42-20.465-14.263-.143-.7-.292-1.427-.458-2.177a2.5 2.5 0 0 1 4.178-2.338c2.666 2.576 7.987 3.777 16.745 3.777s14.079-1.2 16.745-3.777a2.5 2.5 0 0 1 4.178 2.338c-.166.75-.315 1.477-.458 2.177-1.812 8.843-3.765 14.263-20.465 14.263zm-14.819-11.938c1.317 4.864 3.634 6.938 14.819 6.938s13.5-2.074 14.819-6.938c-3.626 1.322-8.445 1.937-14.819 1.937s-11.193-.615-14.819-1.937z"/><path d="m115.992 111.687a3.48 3.48 0 0 1 -3.289-2.32l-5.277-14.776a2.5 2.5 0 0 1 3.29-3.159 14.128 14.128 0 0 0 9.236.831 2.5 2.5 0 0 1 3.1 3.049l-3.674 13.779a3.481 3.481 0 0 1 -3.233 2.593zm-2.234-14.24 2.03 5.685 1.454-5.45a18.86 18.86 0 0 1 -3.485-.23z"/><path d="m140.008 111.687c-.05 0-.1 0-.149 0a3.481 3.481 0 0 1 -3.233-2.593l-3.674-13.779a2.5 2.5 0 0 1 3.1-3.049 14.121 14.121 0 0 0 9.236-.831 2.5 2.5 0 0 1 3.29 3.159l-5.278 14.772a3.48 3.48 0 0 1 -3.292 2.321zm-1.249-14 1.454 5.45 2.03-5.685a18.959 18.959 0 0 1 -3.484.235z"/></svg>